<svg xmlns="http://www.w3.org/2000/svg" preserveAspectRatio="xMidYMid" width="22" height="15"><path d="M18.5 13.5h-15c-1.105 0-2-.895-2-2v-8c0-1.105.895-2 2-2h15c1.105 0 2 .895 2 2v8c0 1.105-.895 2-2 2zm-7.998-8.998H9.215v2.3H6.79v-2.3H5.472v5.993H6.79V7.91h2.425v2.585h1.287V4.502zm5.85 1.662c-.136-.37-.326-.677-.57-.924-.243-.246-.53-.43-.864-.554-.333-.123-.693-.184-1.08-.184h-2.365v5.993h2.366c.458 0 .857-.077 1.195-.23.34-.155.62-.366.848-.635.227-.268.396-.587.508-.957.113-.37.17-.772.17-1.208 0-.498-.07-.932-.207-1.3zM14.78 8.988c-.14.143-.3.245-.48.306-.178.062-.363.093-.553.093h-.956V5.61h.722c.324 0 .597.046.818.138.22.092.4.225.533.4.135.172.23.38.29.624.06.244.088.516.088.82 0 .33-.04.61-.125.838-.084.23-.196.415-.336.558z" class="cls-2" fill-rule="evenodd"/></svg>