<?xml version="1.0" encoding="utf-8"?>
<!-- Generated by IcoMoon.io -->
<!DOCTYPE svg PUBLIC "-//W3C//DTD SVG 1.1//EN" "http://www.w3.org/Graphics/SVG/1.1/DTD/svg11.dtd">
<svg version="1.1" xmlns="http://www.w3.org/2000/svg" xmlns:xlink="http://www.w3.org/1999/xlink" width="1536" height="1024" viewBox="0 0 1536 1024"><g id="icomoon-ignore">
</g>
<path d="M319.968 930.048v29.952c-123.712 0-224-100.288-224-224 0-32.832 7.104-63.968 19.68-92.096-12.672-41.856-19.68-86.016-19.68-131.872 0-247.456 200.512-448.032 448-448.032 247.424 0 447.968 200.576 447.968 448.032 0 45.92-6.912 90.112-19.68 131.872 12.704 28.128 19.68 59.264 19.68 92.096 0 123.712-100.32 224-224 224v-448c55.584 0 106.304 20.16 145.6 53.792 2.496-17.696 3.712-35.52 3.712-53.792 0-206.112-167.264-373.376-373.312-373.376s-373.344 167.264-373.344 373.376c0 18.208 1.248 36.096 3.712 53.792 39.36-33.632 90.112-53.792 145.6-53.792v418.048h0.064zM917.312 64v149.344h522.688v-149.344h-522.688zM1066.624 287.968v149.312h373.376v-149.312h-373.376zM1141.344 512v149.344h298.656v-149.344h-298.656z"></path>
</svg>
