<?xml version="1.0" encoding="utf-8"?>
<!-- Generated by IcoMoon.io -->
<!DOCTYPE svg PUBLIC "-//W3C//DTD SVG 1.1//EN" "http://www.w3.org/Graphics/SVG/1.1/DTD/svg11.dtd">
<svg version="1.1" xmlns="http://www.w3.org/2000/svg" xmlns:xlink="http://www.w3.org/1999/xlink" width="1536" height="1024" viewBox="0 0 1536 1024"><g id="icomoon-ignore">
</g>
<path d="M256 989.867v34.133c-141.397 0-256-114.603-256-256 0-37.547 8.107-73.131 22.528-105.216-14.507-47.787-22.528-98.304-22.528-150.784 0-282.795 229.205-512 512-512s512 229.205 512 512c0 52.48-7.936 103.083-22.528 150.784 14.507 32.085 22.528 67.669 22.528 105.216 0 141.397-114.603 256-256 256v-512c63.488 0 121.515 23.040 166.4 61.44 2.816-20.139 4.267-40.619 4.267-61.44 0-235.52-191.147-426.667-426.667-426.667s-426.667 191.147-426.667 426.667c0 20.821 1.451 41.301 4.267 61.44 44.971-38.4 102.997-61.44 166.4-61.44v477.867zM938.667 0v170.667h597.333v-170.667h-597.333zM1109.333 256v170.667h426.667v-170.667h-426.667zM1194.667 512v170.667h341.333v-170.667h-341.333z"></path>
</svg>
