<?xml version="1.0" encoding="utf-8"?>
<!-- Generated by IcoMoon.io -->
<!DOCTYPE svg PUBLIC "-//W3C//DTD SVG 1.1//EN" "http://www.w3.org/Graphics/SVG/1.1/DTD/svg11.dtd">
<svg version="1.1" xmlns="http://www.w3.org/2000/svg" xmlns:xlink="http://www.w3.org/1999/xlink" width="1280" height="1024" viewBox="0 0 1280 1024"><g id="icomoon-ignore">
</g>
<path d="M638.784 894.432c-3.296-14.688-7.2-47.36-11.456-61.696h523.776v-705.056h-954.432v279.488c-14.688-4.224-49.792-11.968-64.768-15.264v-327.904h1084.096v830.432h-577.216zM555.616 959.744h-90.016c-21.12-206.048-189.856-370.4-401.6-390.88v-87.68c261.632 21.088 470.016 224 491.712 478.816l-0.096-0.256zM374.944 959.744h-90.624c-19.008-109.44-107.776-195.872-220.352-214.432v-88.384c162.304 19.872 290.784 144.8 311.040 302.816h-0.064zM192.672 959.744h-128.672v-125.184c63.008 15.744 112.512 64 128.832 125.248l-0.16-0.064z"></path>
</svg>
