<?xml version="1.0" encoding="utf-8"?>
<!-- Generated by IcoMoon.io -->
<!DOCTYPE svg PUBLIC "-//W3C//DTD SVG 1.1//EN" "http://www.w3.org/Graphics/SVG/1.1/DTD/svg11.dtd">
<svg version="1.1" xmlns="http://www.w3.org/2000/svg" xmlns:xlink="http://www.w3.org/1999/xlink" width="1280" height="1024" viewBox="0 0 1280 1024"><g id="icomoon-ignore">
</g>
<path d="M640 896c-3.2-16-6.4-48-12.8-64h524.8v-704h-960v275.2c-16-3.2-51.2-9.6-64-12.8v-326.4h1088v832h-576zM256 432v-240h832v576h-480c-64-163.2-185.6-275.2-352-336v0zM556.8 960h-89.6c-22.4-204.8-192-371.2-403.2-390.4v-89.6c262.4 22.4 470.4 224 492.8 480v0zM377.6 960h-89.6c-19.2-108.8-108.8-195.2-220.8-214.4v-89.6c160 22.4 288 147.2 310.4 304v0zM192 960h-128v-124.8c64 16 112 64 128 124.8v0z"></path>
</svg>
