<?xml version="1.0" encoding="utf-8"?>
<!-- Generated by IcoMoon.io -->
<!DOCTYPE svg PUBLIC "-//W3C//DTD SVG 1.1//EN" "http://www.w3.org/Graphics/SVG/1.1/DTD/svg11.dtd">
<svg version="1.1" xmlns="http://www.w3.org/2000/svg" xmlns:xlink="http://www.w3.org/1999/xlink" width="1317" height="1024" viewBox="0 0 1317 1024"><g id="icomoon-ignore">
</g>
<path d="M659.237 949.102c-3.803-16.823-8.265-54.126-13.166-70.51h600.722v-805.595h-1094.656v319.342c-16.823-4.827-57.051-13.678-74.313-17.408v-374.711h1243.429v948.882h-661.943zM563.858 1023.707h-103.278c-24.21-235.447-217.746-423.205-460.581-446.61v-100.206c300.032 24.137 539.063 256 563.931 547.109zM356.645 1023.707h-103.936c-21.797-125.074-123.611-223.817-252.709-245.029v-100.937c186.149 22.674 333.531 165.449 356.718 345.966zM147.602 1023.707h-147.602v-143.067c72.265 17.993 129.024 73.143 147.749 143.141z"></path>
</svg>
