<?xml version="1.0" encoding="utf-8"?>
<!-- Generated by IcoMoon.io -->
<!DOCTYPE svg PUBLIC "-//W3C//DTD SVG 1.1//EN" "http://www.w3.org/Graphics/SVG/1.1/DTD/svg11.dtd">
<svg version="1.1" xmlns="http://www.w3.org/2000/svg" xmlns:xlink="http://www.w3.org/1999/xlink" width="1317" height="1024" viewBox="0 0 1317 1024"><g id="icomoon-ignore">
</g>
<path d="M656.823 949.102c-3.657-16.823-8.046-56.32-13.166-72.777h598.601v-803.182h-1096.997v314.807c-16.823-4.901-56.905-9.143-74.313-12.873v-374.857h1245.623v948.882h-659.749zM219.648 420.791v-275.017h950.638v657.701h-548.571c-73.143-185.051-211.383-311.954-402.286-382.683zM563.931 1023.781h-103.351c-24.21-235.52-217.746-423.278-460.581-446.903v-99.986c300.032 23.918 539.063 255.854 563.931 546.889zM356.718 1023.781h-104.009c-21.797-125.074-123.611-223.963-252.709-245.029v-100.937c186.149 22.528 333.531 165.303 356.718 345.966zM147.675 1023.781h-147.675v-143.141c72.265 17.993 129.024 73.143 147.749 143.141z"></path>
</svg>
