<svg xmlns="http://www.w3.org/2000/svg" preserveAspectRatio="xMidYMid" width="18" height="14"><path d="M8.98 12.976c-.05-.23-.11-.77-.18-.995h8.184V1H1.986v4.304c-.23-.067-.778-.125-1.016-.176V.003H18v12.973H8.98zM3.003 5.753v-3.76H16v8.992H8.5C7.5 8.455 5.61 6.72 3 5.753zm4.707 8.244H6.297C5.966 10.777 3.32 8.21 0 7.887V6.52c4.102.327 7.37 3.498 7.71 7.477zm-2.833 0H3.455c-.298-1.71-1.69-3.062-3.455-3.35v-1.38c2.545.308 4.56 2.26 4.877 4.73zm-2.858 0H0V12.04c.988.246 1.764 1 2.02 1.957z" class="cls-2" fill-rule="evenodd"/></svg>