<?xml version="1.0" encoding="utf-8"?>
<!-- Generated by IcoMoon.io -->
<!DOCTYPE svg PUBLIC "-//W3C//DTD SVG 1.1//EN" "http://www.w3.org/Graphics/SVG/1.1/DTD/svg11.dtd">
<svg version="1.1" xmlns="http://www.w3.org/2000/svg" xmlns:xlink="http://www.w3.org/1999/xlink" width="1536" height="1024" viewBox="0 0 1536 1024"><g id="icomoon-ignore">
</g>
<path d="M64 960v-896h1408v896h-1408zM1397.888 138.656h-1259.776v746.656h1259.776v-746.656zM409.344 353.664c17.792-20.384 39.808-36.416 65.792-47.968 25.952-11.648 55.296-17.472 87.904-17.472 23.392 0 45.568 3.424 66.464 10.24 20.896 6.688 39.584 16.672 56.096 29.728 16.448 13.024 30.080 29.088 40.768 48.352 10.752 19.2 17.504 41.216 20.288 65.984h-90.4c-1.696-10.816-5.216-20.672-10.816-29.696-5.568-8.96-12.608-16.864-20.896-23.744-8.288-6.688-17.792-12.096-28.32-15.904-10.528-3.712-21.472-5.632-33.056-5.632-21.056 0-38.912 4.16-53.664 12.352-14.656 8.224-26.688 19.2-35.712 32.992-9.12 13.824-15.808 29.568-20 47.008-4.128 17.728-6.24 35.872-6.24 54.784 0 17.952 2.080 35.488 6.24 52.544 4.224 16.96 10.912 32.288 20 45.856 9.12 13.664 21.056 24.512 35.712 32.672 14.816 8.256 32.64 12.352 53.664 12.352 28.608 0 50.976-8.768 67.072-26.432 16-17.632 25.952-40.832 29.408-69.664h90.528c-2.432 26.912-8.576 51.072-18.496 72.672-9.952 21.696-22.976 40.096-39.264 55.296-16.32 15.232-35.424 26.848-57.312 34.816-21.856 8.032-45.952 11.968-72.096 11.968-32.608 0-61.888-5.632-87.904-17.152-25.92-11.232-47.936-26.976-65.952-47.040-17.792-20-31.488-43.52-40.96-70.592-9.664-27.008-14.4-56.096-14.4-87.328 0-32.096 4.896-61.728 14.464-89.184 9.472-27.296 23.168-51.264 41.056-71.648v-0.16zM850.848 353.664c17.792-20.384 39.904-36.416 65.984-47.968 25.92-11.648 55.2-17.472 87.808-17.472 23.392 0 45.568 3.424 66.464 10.24 20.736 6.688 39.488 16.672 55.968 29.728 16.512 13.024 30.144 29.088 40.736 48.352 10.816 19.2 17.568 41.216 20.384 65.984h-90.624c-1.504-10.816-5.216-20.672-10.656-29.696-5.632-8.96-12.608-16.864-20.896-23.744-8.16-6.688-17.824-12.096-28.192-15.904-10.592-3.712-21.6-5.632-33.12-5.632-21.056 0-38.976 4.16-53.664 12.352-14.816 8.224-26.656 19.2-35.776 32.992-9.184 13.824-15.808 29.568-20 47.008-4.128 17.728-6.24 35.872-6.24 54.784 0 17.952 2.080 35.488 6.24 52.544 4.224 16.96 10.816 32.288 20 45.856 9.12 13.664 21.056 24.512 35.712 32.672 14.624 8.256 32.608 12.352 53.6 12.352 28.608 0 50.912-8.768 67.072-26.432 16.064-17.632 25.92-40.832 29.504-69.664h90.56c-2.4 26.912-8.544 51.072-18.56 72.672-9.856 21.696-22.944 40.096-39.264 55.296-16.32 15.232-35.36 26.848-57.216 34.816-21.888 8.032-45.952 11.968-72.096 11.968-32.608 0-61.888-5.632-87.904-17.152-25.952-11.232-48-26.976-65.952-47.040-17.792-20-31.488-43.52-41.056-70.592-9.472-27.008-14.272-56.096-14.272-87.328 0-32.096 4.8-61.728 14.272-89.184 9.664-27.296 23.264-51.264 41.12-71.648l0.064-0.16z"></path>
</svg>
