<?xml version="1.0" encoding="utf-8"?>
<!-- Generated by IcoMoon.io -->
<!DOCTYPE svg PUBLIC "-//W3C//DTD SVG 1.1//EN" "http://www.w3.org/Graphics/SVG/1.1/DTD/svg11.dtd">
<svg version="1.1" xmlns="http://www.w3.org/2000/svg" xmlns:xlink="http://www.w3.org/1999/xlink" width="1502" height="1024" viewBox="0 0 1502 1024"><g id="icomoon-ignore">
</g>
<path d="M1262.933 921.6h-1024c-75.435 0-136.533-61.099-136.533-136.533v-546.133c0-75.435 61.099-136.533 136.533-136.533h1024c75.435 0 136.533 61.099 136.533 136.533v546.133c0 75.435-61.099 136.533-136.533 136.533zM461.346 464.418c3.891-16.043 10.035-30.447 18.432-43.008 8.397-12.698 19.388-22.733 32.905-30.242 13.653-7.509 30.037-11.264 49.425-11.264 10.65 0 20.753 1.707 30.447 5.188 9.694 3.55 18.432 8.397 26.078 14.609 7.714 6.281 14.131 13.517 19.251 21.709s8.397 17.271 9.899 27.17h83.285c-2.526-22.665-8.738-42.803-18.637-60.348-9.83-17.613-22.391-32.29-37.547-44.237-15.223-11.878-32.427-20.958-51.61-27.17-19.115-6.144-39.595-9.353-61.167-9.353-30.037 0-57.003 5.325-80.964 15.974-23.893 10.581-44.169 25.259-60.757 43.895-16.384 18.637-29.013 40.55-37.751 65.536-8.875 25.122-13.175 52.292-13.175 81.579 0 28.535 4.369 55.159 13.175 79.872 8.738 24.713 21.367 46.217 37.82 64.512 16.384 18.295 36.659 32.768 60.621 43.008 23.893 10.513 50.927 15.701 80.964 15.701 24.166 0 46.285-3.618 66.423-10.923s37.683-17.954 52.702-31.881c15.019-13.858 27.034-30.72 36.181-50.517s14.814-41.847 17.067-66.423h-83.422c-3.277 26.351-12.288 47.582-27.17 63.693s-35.499 24.166-61.85 24.166c-19.388 0-35.84-3.755-49.425-11.264-13.517-7.509-24.576-17.476-32.905-29.901-8.397-12.425-14.541-26.419-18.432-41.984-3.823-15.701-5.734-31.676-5.734-48.128 0-17.203 1.911-33.86 5.734-49.971zM868.215 464.418c3.823-16.043 9.899-30.447 18.432-43.008 8.329-12.698 19.319-22.733 32.768-30.242 13.653-7.509 30.037-11.264 49.493-11.264 10.581 0 20.753 1.707 30.447 5.188 9.557 3.55 18.432 8.397 25.941 14.609 7.782 6.281 14.131 13.517 19.319 21.709 5.12 8.192 8.397 17.271 9.83 27.17h83.49c-2.594-22.665-8.875-42.803-18.705-60.348-9.83-17.613-22.391-32.29-37.547-44.237-15.223-11.878-32.427-20.958-51.61-27.17-19.251-6.144-39.595-9.353-61.235-9.353-30.037 0-57.003 5.325-80.964 15.974-23.893 10.581-44.237 25.259-60.757 43.895-16.384 18.637-29.013 40.55-37.82 65.536-8.738 25.122-13.175 52.292-13.175 81.579 0 28.535 4.437 55.159 13.175 79.872 8.875 24.713 21.436 46.217 37.888 64.512 16.384 18.295 36.727 32.768 60.757 43.008 23.893 10.513 50.859 15.701 80.896 15.701 24.166 0 46.285-3.618 66.423-10.923s37.683-17.954 52.702-31.881c15.019-13.858 27.102-30.72 36.181-50.517 9.216-19.797 14.882-41.847 17.067-66.423h-83.422c-3.413 26.351-12.288 47.582-27.17 63.693s-35.499 24.166-61.781 24.166c-19.388 0-35.84-3.755-49.425-11.264-13.653-7.509-24.576-17.476-32.973-29.901-8.465-12.425-14.541-26.419-18.432-41.984-3.823-15.701-5.734-31.676-5.734-48.128 0-17.203 1.911-33.86 5.734-49.971z"></path>
</svg>
