<?xml version="1.0" encoding="utf-8"?>
<!-- Generated by IcoMoon.io -->
<!DOCTYPE svg PUBLIC "-//W3C//DTD SVG 1.1//EN" "http://www.w3.org/Graphics/SVG/1.1/DTD/svg11.dtd">
<svg version="1.1" xmlns="http://www.w3.org/2000/svg" xmlns:xlink="http://www.w3.org/1999/xlink" width="1536" height="1024" viewBox="0 0 1536 1024"><g id="icomoon-ignore">
</g>
<path d="M1323.776 960h-1111.552c-81.888 0-148.224-66.848-148.224-149.344v-597.344c0-82.496 66.336-149.312 148.224-149.312h1111.552c81.888 0 148.224 66.816 148.224 149.312v597.344c0 82.496-66.336 149.344-148.224 149.344zM453.632 459.968c4.224-17.536 10.88-33.28 20-47.040 9.12-13.92 21.056-24.864 35.712-33.088 14.816-8.224 32.608-12.32 53.664-12.32 11.552 0 22.528 1.856 33.056 5.664 10.528 3.872 20 9.184 28.288 15.968 8.416 6.88 15.36 14.784 20.896 23.744 5.568 8.96 9.12 18.88 10.72 29.728h90.432c-2.752-24.768-9.472-46.848-20.256-66.016-10.656-19.264-24.288-35.328-40.736-48.416-16.544-12.992-35.2-22.912-56-29.696-20.704-6.72-42.976-10.24-66.4-10.24-32.608 0-61.92 5.856-87.904 17.472-25.92 11.552-47.968 27.616-65.952 48-17.792 20.416-31.488 44.352-40.96 71.68-9.664 27.456-14.336 57.152-14.336 89.216 0 31.2 4.736 60.32 14.336 87.328 9.472 27.072 23.232 50.56 41.024 70.56s39.808 35.84 65.824 47.072c25.952 11.456 55.296 17.152 87.872 17.152 26.24 0 50.272-3.936 72.096-11.904 21.92-8 40.896-19.648 57.216-34.912 16.32-15.2 29.376-33.632 39.328-55.264 9.92-21.664 16.096-45.76 18.528-72.672h-90.56c-3.552 28.832-13.344 52.032-29.504 69.696-16.16 17.632-38.528 26.432-67.168 26.432-21.024 0-38.88-4.16-53.664-12.352-14.656-8.224-26.656-19.136-35.68-32.672-9.12-13.568-15.808-28.896-20-45.952-4.128-17.184-6.176-34.656-6.176-52.64 0-18.784 2.048-37.056 6.176-54.656h0.128v0.128zM895.328 459.968c4.192-17.536 10.784-33.28 20-47.040 9.024-13.92 20.992-24.864 35.584-33.088 14.816-8.224 32.64-12.32 53.728-12.32 11.488 0 22.528 1.856 33.056 5.664 10.336 3.872 20 9.184 28.16 15.968 8.48 6.88 15.328 14.784 20.96 23.744 5.536 8.96 9.088 18.88 10.656 29.728h90.656c-2.816-24.768-9.696-46.848-20.352-66.016-10.656-19.264-24.288-35.328-40.704-48.416-16.544-12.992-35.264-22.912-56.032-29.696-20.864-6.72-42.976-10.24-66.464-10.24-32.64 0-61.888 5.856-87.872 17.472-25.984 11.552-48 27.616-65.984 48-17.824 20.416-31.456 44.352-41.056 71.68-9.472 27.456-14.24 57.152-14.24 89.216 0 31.2 4.768 60.32 14.24 87.328 9.664 27.072 23.296 50.56 41.088 70.56 17.856 20 39.872 35.84 65.984 47.072 25.984 11.456 55.232 17.152 87.808 17.152 26.208 0 50.208-3.936 72.096-11.904 21.888-8 40.896-19.648 57.216-34.912 16.32-15.2 29.44-33.632 39.296-55.264 10.016-21.696 16.192-45.76 18.528-72.672h-90.528c-3.712 28.832-13.376 52.032-29.536 69.696-16.16 17.632-38.496 26.432-67.072 26.432-21.024 0-38.944-4.16-53.664-12.352-14.848-8.224-26.72-19.136-35.776-32.672-9.184-13.568-15.776-28.896-20-45.952-4.192-17.184-6.208-34.656-6.208-52.64 0-18.784 2.016-37.056 6.208-54.656h0.192v0.128z"></path>
</svg>
