<?xml version="1.0" encoding="utf-8"?>
<!-- Generated by IcoMoon.io -->
<!DOCTYPE svg PUBLIC "-//W3C//DTD SVG 1.1//EN" "http://www.w3.org/Graphics/SVG/1.1/DTD/svg11.dtd">
<svg version="1.1" xmlns="http://www.w3.org/2000/svg" xmlns:xlink="http://www.w3.org/1999/xlink" width="1024" height="1024" viewBox="0 0 1024 1024"><g id="icomoon-ignore">
</g>
<path d="M675.2 512l246.4 246.4c48 48 48 124.8 0 163.2-48 48-124.8 48-163.2 0l-246.4-246.4-246.4 246.4c-48 48-124.8 48-163.2 0-48-48-48-124.8 0-163.2l246.4-246.4-246.4-246.4c-48-48-48-124.8 0-163.2 48-48 124.8-48 163.2 0l246.4 246.4 246.4-246.4c48-48 124.8-48 163.2 0 48 48 48 124.8 0 163.2l-246.4 246.4z"></path>
</svg>
