<?xml version="1.0" encoding="utf-8"?>
<!-- Generated by IcoMoon.io -->
<!DOCTYPE svg PUBLIC "-//W3C//DTD SVG 1.1//EN" "http://www.w3.org/Graphics/SVG/1.1/DTD/svg11.dtd">
<svg version="1.1" xmlns="http://www.w3.org/2000/svg" xmlns:xlink="http://www.w3.org/1999/xlink" width="1024" height="1024" viewBox="0 0 1024 1024"><g id="icomoon-ignore">
</g>
<path d="M675.978 512l245.967 245.967c49.194 49.194 49.194 122.983 0 163.978-49.194 49.194-122.983 49.194-163.978 0l-245.967-245.967-245.967 245.967c-49.194 49.194-122.983 49.194-163.978 0-49.194-49.194-49.194-122.983 0-163.978l245.967-245.967-245.967-245.967c-49.194-49.194-49.194-122.983 0-163.978 49.194-49.194 122.983-49.194 163.978 0l245.967 245.967 245.967-245.967c49.194-49.194 122.983-49.194 163.978 0 49.194 49.194 49.194 122.983 0 163.978l-245.967 245.967z"></path>
</svg>
