<?xml version="1.0" encoding="utf-8"?>
<!-- Generated by IcoMoon.io -->
<!DOCTYPE svg PUBLIC "-//W3C//DTD SVG 1.1//EN" "http://www.w3.org/Graphics/SVG/1.1/DTD/svg11.dtd">
<svg version="1.1" xmlns="http://www.w3.org/2000/svg" xmlns:xlink="http://www.w3.org/1999/xlink" width="1024" height="1024" viewBox="0 0 1024 1024"><g id="icomoon-ignore">
</g>
<path d="M789.112 348.13c0 0 103.605 103.544 103.605 103.544s-320.392-0.060-320.392-0.060c0 0 0-320.331 0-320.331s103.544 103.544 103.544 103.544c0 0 141.432-141.432 141.432-141.432s113.303 113.303 113.303 113.303c0 0-141.493 141.432-141.493 141.432zM348.13 789.173c0 0-141.432 141.372-141.432 141.372s-113.303-113.242-113.303-113.242c0 0 141.432-141.432 141.432-141.432s-103.544-103.544-103.544-103.544c0 0 320.392 0.060 320.392 0.060s0 320.331 0 320.331c0 0-103.544-103.544-103.544-103.544z"></path>
</svg>
