<svg xmlns="http://www.w3.org/2000/svg" preserveAspectRatio="xMidYMid" width="27" height="20"><path d="M4 16V4h19v12H4zM22 5H5v10h17V5zM9.29 9.302h2.425v-2.3h1.287v5.993h-1.287V10.41H9.29v2.585H7.972V7.002H9.29v2.3zm8.128-2.116c.333.124.62.308.864.554.244.247.434.554.57.924.138.37.207.803.207 1.3 0 .437-.057.84-.17 1.21-.11.37-.28.688-.507.956-.227.27-.51.48-.848.634-.338.154-.737.23-1.196.23h-2.367V7.003h2.366c.385 0 .745.06 1.078.184zm-2.127.924v3.777h.957c.19 0 .375-.03.554-.093.18-.06.34-.163.48-.306.14-.143.25-.33.335-.558.084-.23.126-.51.126-.84 0-.302-.028-.574-.087-.818-.06-.243-.155-.452-.29-.625-.134-.174-.312-.307-.533-.4-.22-.09-.494-.137-.818-.137h-.72z" class="cls-2" fill-rule="evenodd"/></svg>