<?xml version="1.0" encoding="utf-8"?>
<!-- Generated by IcoMoon.io -->
<!DOCTYPE svg PUBLIC "-//W3C//DTD SVG 1.1//EN" "http://www.w3.org/Graphics/SVG/1.1/DTD/svg11.dtd">
<svg version="1.1" xmlns="http://www.w3.org/2000/svg" xmlns:xlink="http://www.w3.org/1999/xlink" width="1382" height="1024" viewBox="0 0 1382 1024"><g id="icomoon-ignore">
</g>
<path d="M204.8 819.2v-614.4h972.8v614.4h-972.8zM1126.4 256h-870.4v512h870.4v-512zM475.648 476.262h124.16v-117.76h65.894v306.842h-65.894v-132.352h-124.16v132.352h-67.482v-306.842h67.482v117.76zM891.802 367.923c17.050 6.349 31.744 15.77 44.237 28.365 12.493 12.646 22.221 28.365 29.184 47.309 7.066 18.944 10.598 41.114 10.598 66.56 0 22.374-2.918 43.008-8.704 61.952-5.632 18.944-14.336 35.226-25.958 48.947-11.622 13.824-26.112 24.576-43.418 32.461s-37.734 11.776-61.235 11.776h-121.19v-306.739h121.139c19.712 0 38.144 3.072 55.194 9.421zM782.899 415.232v193.382h48.998c9.728 0 19.2-1.536 28.365-4.762 9.216-3.072 17.408-8.346 24.576-15.667s12.8-16.896 17.152-28.57c4.301-11.776 6.451-26.112 6.451-43.008 0-15.462-1.434-29.389-4.454-41.882-3.072-12.442-7.936-23.142-14.848-32-6.861-8.909-15.974-15.718-27.29-20.48-11.264-4.608-25.293-7.014-41.882-7.014h-36.864z"></path>
</svg>
