<?xml version="1.0" encoding="utf-8"?>
<!-- Generated by IcoMoon.io -->
<!DOCTYPE svg PUBLIC "-//W3C//DTD SVG 1.1//EN" "http://www.w3.org/Graphics/SVG/1.1/DTD/svg11.dtd">
<svg version="1.1" xmlns="http://www.w3.org/2000/svg" xmlns:xlink="http://www.w3.org/1999/xlink" width="1536" height="1024" viewBox="0 0 1536 1024"><g id="icomoon-ignore">
</g>
<path d="M64 960v-896h1408v896h-1408zM1398.4 137.6h-1260.8v745.6h1260.8v-745.6zM457.6 457.6h182.4v-172.8h96v448h-96v-192h-182.4v192h-99.2v-448h99.2v172.8zM1062.4 300.8c25.6 9.6 44.8 22.4 64 41.6s32 41.6 41.6 70.4 16 60.8 16 96c0 32-3.2 64-12.8 89.6-9.6 28.8-22.4 51.2-38.4 70.4s-38.4 35.2-64 48-54.4 16-89.6 16h-176v-448h176c28.8 3.2 57.6 6.4 83.2 16v0zM902.4 368v281.6h70.4c12.8 0 28.8-3.2 41.6-6.4s25.6-12.8 35.2-22.4c9.6-9.6 19.2-25.6 25.6-41.6s9.6-38.4 9.6-64c0-22.4-3.2-41.6-6.4-60.8s-12.8-35.2-22.4-48c-9.6-12.8-22.4-22.4-38.4-28.8s-38.4-9.6-60.8-9.6h-54.4z"></path>
</svg>
