<?xml version="1.0" encoding="utf-8"?>
<!-- Generated by IcoMoon.io -->
<!DOCTYPE svg PUBLIC "-//W3C//DTD SVG 1.1//EN" "http://www.w3.org/Graphics/SVG/1.1/DTD/svg11.dtd">
<svg version="1.1" xmlns="http://www.w3.org/2000/svg" xmlns:xlink="http://www.w3.org/1999/xlink" width="1536" height="1024" viewBox="0 0 1536 1024"><g id="icomoon-ignore">
</g>
<path d="M1321.6 960h-1110.4c-83.2 0-150.4-67.2-150.4-150.4v-595.2c0-83.2 67.2-150.4 150.4-150.4h1110.4c83.2 0 150.4 67.2 150.4 150.4v595.2c0 83.2-67.2 150.4-150.4 150.4zM732.8 291.2h-96v172.8h-179.2v-172.8h-99.2v448h99.2v-192h179.2v192h96v-448zM1164.8 416c-9.6-28.8-25.6-51.2-41.6-70.4-19.2-19.2-38.4-32-64-41.6s-51.2-12.8-80-12.8h-176v448h176c35.2 0 64-6.4 89.6-16 25.6-12.8 44.8-28.8 64-48 16-19.2 28.8-44.8 38.4-70.4 9.6-28.8 12.8-57.6 12.8-89.6-3.2-38.4-6.4-70.4-19.2-99.2v0 0zM1045.6 642.4c-9.6 9.8-22.4 19.6-35.2 22.9s-25.6 6.5-41.6 6.5h-70.4v-287.3h54.4c25.6 0 44.8 3.3 60.8 9.8s28.8 16.3 38.4 29.4 16 29.4 22.4 49c3.2 19.6 6.4 39.2 6.4 62 0 26.1-3.2 45.7-9.6 65.3-6.4 16.3-16 32.6-25.6 42.4v0 0z"></path>
</svg>
