<?xml version="1.0" encoding="utf-8"?>
<!-- Generated by IcoMoon.io -->
<!DOCTYPE svg PUBLIC "-//W3C//DTD SVG 1.1//EN" "http://www.w3.org/Graphics/SVG/1.1/DTD/svg11.dtd">
<svg version="1.1" xmlns="http://www.w3.org/2000/svg" xmlns:xlink="http://www.w3.org/1999/xlink" width="1502" height="1024" viewBox="0 0 1502 1024"><g id="icomoon-ignore">
</g>
<path d="M1262.933 921.6h-1024c-75.435 0-136.533-61.099-136.533-136.533v-546.133c0-75.435 61.099-136.533 136.533-136.533h1024c75.435 0 136.533 61.099 136.533 136.533v546.133c0 75.435-61.099 136.533-136.533 136.533zM716.937 307.337h-87.859v157.013h-165.547v-157.013h-89.975v409.122h89.975v-176.469h165.547v176.469h87.859v-409.122zM1116.297 420.796c-9.284-25.259-22.255-46.217-38.912-63.078-16.589-16.794-36.181-29.355-58.982-37.82-22.733-8.397-47.309-12.561-73.728-12.561h-161.451v409.122h161.519c31.266 0 58.505-5.257 81.579-15.701 23.211-10.581 42.325-24.986 57.89-43.349 15.497-18.295 27.034-40.073 34.679-65.331 7.714-25.259 11.605-52.702 11.605-82.466 0-33.997-4.779-63.625-14.131-88.747zM1008.981 613.581c-9.557 9.762-20.48 16.725-32.768 20.89-12.151 4.233-24.781 6.349-37.751 6.349h-65.263v-257.843h49.289c22.118 0 40.755 3.14 55.842 9.421 15.019 6.281 27.307 15.36 36.386 27.307 9.216 11.742 15.701 25.941 19.797 42.598s6.007 35.226 6.007 55.979c0 22.528-2.731 41.643-8.533 57.207-5.734 15.701-13.38 28.331-22.938 38.093z"></path>
</svg>
