<?xml version="1.0" encoding="utf-8"?>
<!-- Generator: Adobe Illustrator 18.1.1, SVG Export Plug-In . SVG Version: 6.00 Build 0)  -->
<svg version="1.1" id="Layer_1" xmlns="http://www.w3.org/2000/svg" xmlns:xlink="http://www.w3.org/1999/xlink" x="0px" y="0px"
	 viewBox="0 0 144 144" enable-background="new 0 0 144 144" xml:space="preserve">
<path d="M26.5,74c-0.2,0.9-0.7,0.9-0.9,0l-0.4-1.6c0,0-0.7-2.4-1.8-5.1c-0.2-0.9-0.7-1.8-1.3-2.7
	c-0.9-0.9-2.2-1.3-3.6-0.9c-1.1,0.4-2,1.6-2.2,2.7c-0.2,1.1,0.2,2.2,0.2,3.1c0.4,3.1,2.7,15.6,4,18.3c1.3,2.7,4.5,4,7.1,2.7
	c2.7-1.3,3.8-4.7,4.9-7.1c1.3-3.1,8-21.6,8-21.6c0.7-1.8,1.1-1.8,1.1,0.2c0,0-0.2,18-0.4,26.3c0,3.1,0.2,8.7,1.1,11.6
	c0.7,2,1.6,3.8,3.3,5.1c1.6,1.1,3.6,1.8,5.6,1.6c0.7,0,2-0.4,2.9-0.9c1.3-0.7,2.2-1.8,3.1-2.9c2-2.4,3.6-5.6,4.9-8.2
	c3.3-6.5,11.6-26,11.6-26c0.7-1.8,1.3-1.6,1.3,0.2c0,0-1.1,33.2-1.1,45.6c0,3.1,0.7,6.2,1.8,9.1c1.1,2.7,2.9,5.1,5.8,6.2
	c2.9,1.3,6.2,1.1,9.1-0.4c2.2-1.1,3.8-3.1,5.1-5.1c1.8-2.9,3.1-6,4.2-9.1c2.4-6.5,4.7-13.1,6.7-19.8c2-6.7,19.8-69.9,20.9-75.2
	c0.2-0.7,0.2-1.1,0.2-1.8c-0.2-1.3-0.9-2.4-2-2.9c-2-0.9-4.2,0-5.1,1.8c-0.9,2-25.1,60.5-25.1,60.5c-0.7,1.8-1.3,1.8-1.3-0.2
	c0,0,0-20.3,0.2-37.2c0-9.1-4.5-14.2-10.7-15.4c-2.9-0.4-5.8,0.2-8.5,1.8c-2.7,1.8-4.5,4.2-6,7.1C67.2,37.5,55.4,72,55.4,72
	c-0.7,1.8-1.1,1.8-1.1-0.2c0,0-0.4-14.9-0.7-18.5C53.2,48,51.9,39.1,45,38.6c-6.5-0.4-9.3,7.6-11.1,12.7c-1.1,3.3-6.5,21.1-6.5,21.1
	L26.5,74z"/>
</svg>
