<?xml version="1.0" encoding="utf-8"?>
<!-- Generated by IcoMoon.io -->
<!DOCTYPE svg PUBLIC "-//W3C//DTD SVG 1.1//EN" "http://www.w3.org/Graphics/SVG/1.1/DTD/svg11.dtd">
<svg version="1.1" xmlns="http://www.w3.org/2000/svg" xmlns:xlink="http://www.w3.org/1999/xlink" width="1536" height="1024" viewBox="0 0 1536 1024"><g id="icomoon-ignore">
</g>
<path d="M396.8 518.4c0 91.9-74.5 166.4-166.4 166.4s-166.4-74.5-166.4-166.4c0-91.9 74.5-166.4 166.4-166.4s166.4 74.5 166.4 166.4z"></path>
<path d="M931.2 518.4c0 91.9-74.5 166.4-166.4 166.4s-166.4-74.5-166.4-166.4c0-91.9 74.5-166.4 166.4-166.4s166.4 74.5 166.4 166.4z"></path>
<path d="M1472 518.4c0 91.9-74.5 166.4-166.4 166.4s-166.4-74.5-166.4-166.4c0-91.9 74.5-166.4 166.4-166.4s166.4 74.5 166.4 166.4z"></path>
</svg>
