<?xml version="1.0" encoding="utf-8"?>
<!-- Generated by IcoMoon.io -->
<!DOCTYPE svg PUBLIC "-//W3C//DTD SVG 1.1//EN" "http://www.w3.org/Graphics/SVG/1.1/DTD/svg11.dtd">
<svg version="1.1" xmlns="http://www.w3.org/2000/svg" xmlns:xlink="http://www.w3.org/1999/xlink" width="1501" height="1024" viewBox="0 0 1501 1024"><g id="icomoon-ignore">
</g>
<path d="M1264.632 346.988c84.486 0 147.851 68.644 147.851 158.413s-63.365 158.413-147.851 158.413c-79.206 0-147.851-68.644-147.851-158.413s68.644-158.413 147.851-158.413zM752.434 346.988c79.206 0 147.851 68.644 147.851 158.413s-68.644 158.413-147.851 158.413c-79.206 0-147.851-68.644-147.851-158.413s68.644-158.413 147.851-158.413zM240.236 346.988c79.206 0 147.851 68.644 147.851 158.413s-68.644 158.413-147.851 158.413-147.851-68.644-147.851-158.413 63.365-158.413 147.851-158.413z"></path>
</svg>
