<?xml version="1.0" encoding="utf-8"?>
<!-- Generated by IcoMoon.io -->
<!DOCTYPE svg PUBLIC "-//W3C//DTD SVG 1.1//EN" "http://www.w3.org/Graphics/SVG/1.1/DTD/svg11.dtd">
<svg version="1.1" xmlns="http://www.w3.org/2000/svg" xmlns:xlink="http://www.w3.org/1999/xlink" width="1216" height="1024" viewBox="0 0 1216 1024"><g id="icomoon-ignore">
</g>
<path d="M985.6 960l-41.6-35.2c102.4-105.6 166.4-252.8 166.4-412.8s-64-304-166.4-412.8l41.6-35.2c112 115.2 182.4 275.2 182.4 448s-70.4 332.8-182.4 448v0zM822.4 828.8l-41.6-35.2c76.8-70.4 124.8-169.6 124.8-281.6s-48-211.2-124.8-281.6l41.6-35.2c86.4 80 140.8 192 140.8 316.8-3.2 124.8-54.4 240-140.8 316.8v0zM627.2 649.6c44.8-28.8 73.6-80 73.6-134.4 0-57.6-28.8-105.6-73.6-134.4l41.6-35.2c51.2 38.4 86.4 102.4 86.4 172.8s-35.2 131.2-86.4 172.8l-41.6-41.6zM64 652.8v-275.2h204.8l275.2-204.8v684.8l-275.2-204.8h-204.8z"></path>
</svg>
