<svg xmlns="http://www.w3.org/2000/svg" preserveAspectRatio="xMidYMid" width="19" height="17"><path d="M14.866 14.994l-.598-.52c1.506-1.555 2.432-3.66 2.432-5.98 0-2.32-.926-4.426-2.432-5.98l.598-.52c1.63 1.693 2.634 3.98 2.634 6.5s-1.003 4.807-2.634 6.5zM12.49 13.09l-.604-.526c1.12-1.01 1.827-2.456 1.827-4.07 0-1.614-.707-3.06-1.827-4.07l.603-.525c1.242 1.15 2.023 2.78 2.023 4.594 0 1.814-.78 3.444-2.024 4.595zm-2.844-2.637c.636-.426 1.054-1.144 1.054-1.96 0-.814-.418-1.533-1.054-1.958l.612-.533c.754.577 1.242 1.478 1.242 2.492s-.488 1.914-1.242 2.49l-.612-.53zm-8.146.075V6.522h2.99l3.998-2.97v9.945l-3.998-2.97H1.5z" class="cls-2" fill-rule="evenodd"/></svg>