<?xml version="1.0" encoding="utf-8"?>
<!-- Generated by IcoMoon.io -->
<!DOCTYPE svg PUBLIC "-//W3C//DTD SVG 1.1//EN" "http://www.w3.org/Graphics/SVG/1.1/DTD/svg11.dtd">
<svg version="1.1" xmlns="http://www.w3.org/2000/svg" xmlns:xlink="http://www.w3.org/1999/xlink" width="1144" height="1024" viewBox="0 0 1144 1024"><g id="icomoon-ignore">
</g>
<path d="M895.458 903.168l-36.021-31.322c90.714-93.666 146.492-220.461 146.492-360.207s-55.778-266.601-146.492-360.207l36.021-31.322c98.184 101.978 158.66 239.736 158.66 391.529s-60.416 289.551-158.66 391.529zM752.339 788.48l-36.382-31.684c67.464-60.838 110.050-147.938 110.050-245.158s-42.586-184.32-110.050-245.158l36.322-31.624c74.812 69.271 121.856 167.454 121.856 276.721s-46.984 207.45-121.916 276.781zM581.030 629.64c38.31-25.66 63.488-68.909 63.488-118.061 0-49.032-25.178-92.341-63.488-117.941l36.864-32.105c45.417 34.756 74.812 89.028 74.812 150.106s-29.395 115.29-74.812 149.986l-36.864-31.925zM90.353 634.157v-241.303h180.104l240.821-178.899v599.040l-240.821-178.899h-180.104z"></path>
</svg>
