<?xml version="1.0" encoding="utf-8"?>
<!-- Generator: Adobe Illustrator 25.2.0, SVG Export Plug-In . SVG Version: 6.00 Build 0)  -->
<svg version="1.1" id="ds-icon-logo-jwplayer" xmlns="http://www.w3.org/2000/svg" xmlns:xlink="http://www.w3.org/1999/xlink"
	 x="0px" y="0px" viewBox="0 0 104 37" style="enable-background:new 0 0 104 37;" xml:space="preserve">
<style type="text/css">
	.st0{fill:#EC0041;}
</style>
<path class="st0" d="M36.6,22.1c0.5,0.4,1.2,0.7,1.9,0.7c1,0,1.4-0.6,1.4-2v-6.1h2.1v6.4c0,2.5-1.2,3.6-3.3,3.6
	c-0.7,0-1.5-0.2-2.1-0.6L36.6,22.1z M50.3,14.7l1.7,6.6l1.6-6.6h2L53,24.5h-1.9L49.4,18l-1.7,6.5h-1.9l-2.5-9.8h2.1l1.6,6.6l1.7-6.6
	H50.3z M58.4,20.6v3.9h-1.3v-9.8h3.6c2,0,3.3,1,3.3,2.9s-1.3,2.9-3.3,2.9H58.4z M60.8,15.8h-2.3v3.6h2.3c1.3,0,2-0.7,2-1.8
	S62,15.8,60.8,15.8 M65.8,14.7h1.3v8.7h5v1.1h-6.3C65.8,24.5,65.8,14.7,65.8,14.7z"/>
<path class="st0" d="M76.3,14.7l3.8,9.8h-1.3l-1.1-3h-4l-1.1,3h-1.3l3.8-9.8L76.3,14.7z M74.1,20.4h3.2l-1.6-4.2L74.1,20.4z
	 M86.4,14.7h1.3l-3.6,5.8v4h-1.2v-4l-3.6-5.8h1.4l2.8,4.6C83.5,19.3,86.4,14.7,86.4,14.7z M95,14.7v1.1h-5v3.1h4.5V20H90v3.3h5v1.1
	h-6.2v-9.8C88.7,14.7,95,14.7,95,14.7z M98,20.3v4.1h-1.2v-9.8h3.6c2,0,3.3,1,3.3,2.8c0.1,1.4-1,2.7-2.5,2.8c0,0,0,0-0.1,0l2.9,4.2
	h-1.4l-2.8-4.1L98,20.3z M98,19.3h2.3c1.3,0,2-0.7,2-1.7s-0.8-1.7-2-1.7H98V19.3z M3.2,19c-0.1,0.3-0.2,0.3-0.3,0l-0.1-0.5
	c0,0-0.2-0.8-0.5-1.7C2.1,16.5,2,16.2,1.8,16c-0.3-0.3-0.7-0.4-1.1-0.3C0.3,15.8,0,16.2,0,16.5c0,0.3,0,0.7,0.1,1
	c0.3,2,0.7,3.9,1.3,5.8c0.4,0.9,1.4,1.2,2.2,0.9c0,0,0,0,0.1,0c0.8-0.6,1.3-1.4,1.5-2.3C5.7,20.9,7.8,15,7.8,15
	c0.2-0.6,0.4-0.6,0.4,0.1c0,0-0.1,5.8-0.1,8.4c0,1.2,0.1,2.5,0.3,3.7c0.2,0.6,0.5,1.2,1,1.6c0.5,0.4,1.2,0.6,1.8,0.5
	c0.3,0,0.6-0.1,0.9-0.3c0.4-0.2,0.7-0.5,1-0.9c0.6-0.8,1.1-1.7,1.6-2.7c1-2,3.7-8.3,3.7-8.3c0.2-0.6,0.4-0.5,0.4,0.1
	c0,0-0.3,10.6-0.3,14.6c0,1,0.2,2,0.6,2.9c0.3,0.9,1,1.6,1.8,2c0.9,0.4,2,0.4,2.9-0.2c0.7-0.4,1.2-1,1.6-1.7c0.5-0.9,1-1.9,1.4-2.9
	c0.8-2.1,1.5-4.2,2.1-6.3s6.3-22.3,6.7-24c0.1-0.2,0.1-0.4,0-0.7c0-0.4-0.3-0.8-0.7-0.9c-0.6-0.3-1.4,0-1.7,0.6
	c-0.3,0.6-8,19.3-8,19.3c-0.2,0.6-0.4,0.5-0.4-0.1V8c0-2.9-1.4-4.6-3.4-4.9c-0.9-0.1-1.9,0.1-2.7,0.6c-0.8,0.6-1.5,1.4-1.9,2.3
	c-0.6,1.2-4.4,12.2-4.4,12.2c-0.2,0.6-0.4,0.6-0.4-0.1c0,0-0.1-4.8-0.2-5.9c-0.2-1.7-0.6-4.5-2.8-4.7s-3,2.4-3.6,4
	c-0.4,1.1-2.1,6.8-2.1,6.8L3.2,19z"/>
</svg>
