<?xml version="1.0" encoding="UTF-8" standalone="no"?>
<svg width="18px" height="12px" viewBox="0 0 18 12" version="1.1" xmlns="http://www.w3.org/2000/svg" xmlns:xlink="http://www.w3.org/1999/xlink" xmlns:sketch="http://www.bohemiancoding.com/sketch/ns">
    <g id="Page-1" stroke="none" stroke-width="1" fill="none" fill-rule="evenodd" sketch:type="MSPage">
        <g id="bekle" sketch:type="MSArtboardGroup" fill="#000000">
            <path d="M3,11.5986534 L3,12 C1.34314575,12 0,10.6568542 0,9 C0,8.56045394 0.0945286184,8.14298623 0.264365556,7.76681715 L0.264365556,7.76681715 C0.0925076149,7.20825594 0,6.61493112 0,6 C0,2.6862915 2.6862915,0 6,0 C9.3137085,0 12,2.6862915 12,6 C12,6.61493112 11.9074924,7.20825594 11.7356344,7.76681715 L11.7356344,7.76681715 C11.9054714,8.14298623 12,8.56045394 12,9 C12,10.6568542 10.6568542,12 9,12 L9,11.5986534 L9,10.0001831 L9,6 C9.74384282,6 10.4244561,6.27071784 10.9486882,6.7190019 C10.9825008,6.4842123 11,6.24414973 11,6 C11,3.23857625 8.76142375,1 6,1 C3.23857625,1 1,3.23857625 1,6 C1,6.24414973 1.0174992,6.4842123 1.05131179,6.7190019 C1.5755439,6.27071784 2.25615718,6 3,6 L3,10.0001831 L3,11.5986534 L3,11.5986534 Z M11,0 L11,2 L18,2 L18,0 L11,0 Z M13,3 L13,5 L18,5 L18,3 L13,3 Z M14,6 L14,8 L18,8 L18,6 L14,6 Z" id="tracks" sketch:type="MSShapeGroup"></path>
        </g>
    </g>
</svg>