<svg xmlns="http://www.w3.org/2000/svg" xmlns:xlink="http://www.w3.org/1999/xlink" preserveAspectRatio="xMidYMid" width="18" height="14" viewBox="0 0 18 14">
  <path d="M9.013,12.976 C8.961,12.745 8.900,12.236 8.832,12.012 C8.832,12.012 17.046,12.012 17.046,12.012 C17.046,12.012 17.046,0.998 17.046,0.998 C17.046,0.998 2.080,0.998 2.080,0.998 C2.080,0.998 2.080,5.364 2.080,5.364 C1.849,5.298 1.301,5.177 1.064,5.126 C1.064,5.126 1.064,0.003 1.064,0.003 C1.064,0.003 18.063,0.003 18.063,0.003 C18.063,0.003 18.063,12.976 18.063,12.976 C18.063,12.976 9.013,12.976 9.013,12.976 ZM7.709,13.997 C7.709,13.997 6.298,13.997 6.298,13.997 C5.966,10.777 3.320,8.209 0.000,7.888 C0.000,7.888 0.000,6.519 0.000,6.519 C4.102,6.847 7.371,10.018 7.709,13.997 ZM4.877,13.997 C4.877,13.997 3.455,13.997 3.455,13.997 C3.157,12.286 1.764,10.935 0.000,10.646 C0.000,10.646 0.000,9.266 0.000,9.266 C2.545,9.575 4.559,11.528 4.877,13.997 ZM2.019,13.997 C2.019,13.997 0.000,13.997 0.000,13.997 C0.000,13.997 0.000,12.039 0.000,12.039 C0.988,12.286 1.764,13.039 2.019,13.997 Z" id="path-1" class="cls-2" fill-rule="evenodd"/>
</svg>
