<svg xmlns="http://www.w3.org/2000/svg" xmlns:xlink="http://www.w3.org/1999/xlink" preserveAspectRatio="xMidYMid" width="18" height="14" viewBox="0 0 18 14">
  <path d="M8.981,12.976 C8.930,12.745 8.869,12.205 8.800,11.981 C8.800,11.981 16.984,11.981 16.984,11.981 C16.984,11.981 16.984,0.998 16.984,0.998 C16.984,0.998 1.986,0.998 1.986,0.998 C1.986,0.998 1.986,5.302 1.986,5.302 C1.755,5.235 1.208,5.177 0.970,5.126 C0.970,5.126 0.970,0.003 0.970,0.003 C0.970,0.003 18.000,0.003 18.000,0.003 C18.000,0.003 18.000,12.976 18.000,12.976 C18.000,12.976 8.981,12.976 8.981,12.976 ZM3.002,5.753 C3.002,5.753 3.002,1.993 3.002,1.993 C3.002,1.993 15.999,1.993 15.999,1.993 C15.999,1.993 15.999,10.985 15.999,10.985 C15.999,10.985 8.499,10.985 8.499,10.985 C7.500,8.454 5.612,6.721 3.002,5.753 ZM7.709,13.997 C7.709,13.997 6.298,13.997 6.298,13.997 C5.966,10.777 3.320,8.209 0.000,7.888 C0.000,7.888 0.000,6.519 0.000,6.519 C4.102,6.847 7.371,10.018 7.709,13.997 ZM4.877,13.997 C4.877,13.997 3.455,13.997 3.455,13.997 C3.157,12.286 1.764,10.935 0.000,10.646 C0.000,10.646 0.000,9.266 0.000,9.266 C2.545,9.575 4.559,11.528 4.877,13.997 ZM2.019,13.997 C2.019,13.997 0.000,13.997 0.000,13.997 C0.000,13.997 0.000,12.039 0.000,12.039 C0.988,12.286 1.764,13.039 2.019,13.997 Z" id="path-1" class="cls-2" fill-rule="evenodd"/>
</svg>
