<svg xmlns="http://www.w3.org/2000/svg" xmlns:xlink="http://www.w3.org/1999/xlink" preserveAspectRatio="xMidYMid" width="22" height="15" viewBox="0 0 22 15">
  <path d="M18.500,13.500 C18.500,13.500 3.500,13.500 3.500,13.500 C2.395,13.500 1.500,12.605 1.500,11.500 C1.500,11.500 1.500,3.500 1.500,3.500 C1.500,2.395 2.395,1.500 3.500,1.500 C3.500,1.500 18.500,1.500 18.500,1.500 C19.605,1.500 20.500,2.395 20.500,3.500 C20.500,3.500 20.500,11.500 20.500,11.500 C20.500,12.605 19.605,13.500 18.500,13.500 ZM6.758,6.803 C6.815,6.568 6.905,6.357 7.028,6.172 C7.151,5.987 7.312,5.840 7.510,5.730 C7.709,5.620 7.950,5.565 8.234,5.565 C8.390,5.565 8.538,5.590 8.680,5.641 C8.822,5.692 8.950,5.763 9.062,5.854 C9.175,5.946 9.269,6.052 9.344,6.172 C9.419,6.293 9.467,6.425 9.489,6.570 C9.489,6.570 10.711,6.570 10.711,6.570 C10.673,6.238 10.582,5.943 10.437,5.686 C10.293,5.428 10.109,5.213 9.887,5.038 C9.664,4.864 9.412,4.731 9.131,4.640 C8.849,4.549 8.550,4.503 8.234,4.503 C7.794,4.503 7.399,4.581 7.048,4.737 C6.697,4.892 6.401,5.107 6.159,5.380 C5.918,5.653 5.733,5.974 5.605,6.341 C5.476,6.708 5.412,7.106 5.412,7.535 C5.412,7.953 5.476,8.343 5.605,8.705 C5.733,9.067 5.918,9.382 6.159,9.650 C6.401,9.918 6.697,10.129 7.048,10.281 C7.399,10.434 7.794,10.511 8.234,10.511 C8.588,10.511 8.912,10.457 9.207,10.350 C9.502,10.243 9.759,10.087 9.979,9.883 C10.199,9.680 10.376,9.433 10.510,9.143 C10.644,8.854 10.727,8.530 10.759,8.170 C10.759,8.170 9.537,8.170 9.537,8.170 C9.489,8.556 9.356,8.867 9.139,9.103 C8.922,9.339 8.620,9.457 8.234,9.457 C7.950,9.457 7.709,9.402 7.510,9.292 C7.312,9.182 7.151,9.036 7.028,8.854 C6.905,8.672 6.815,8.467 6.758,8.239 C6.702,8.011 6.674,7.776 6.674,7.535 C6.674,7.283 6.702,7.039 6.758,6.803 ZM12.717,6.803 C12.774,6.568 12.863,6.357 12.987,6.172 C13.110,5.987 13.271,5.840 13.469,5.730 C13.668,5.620 13.909,5.565 14.193,5.565 C14.348,5.565 14.497,5.590 14.639,5.641 C14.781,5.692 14.909,5.763 15.021,5.854 C15.134,5.946 15.227,6.052 15.303,6.172 C15.378,6.293 15.426,6.425 15.447,6.570 C15.447,6.570 16.670,6.570 16.670,6.570 C16.632,6.238 16.541,5.943 16.396,5.686 C16.252,5.428 16.068,5.213 15.845,5.038 C15.623,4.864 15.371,4.731 15.090,4.640 C14.808,4.549 14.509,4.503 14.193,4.503 C13.753,4.503 13.358,4.581 13.007,4.737 C12.656,4.892 12.359,5.107 12.118,5.380 C11.877,5.653 11.692,5.974 11.563,6.341 C11.435,6.708 11.370,7.106 11.370,7.535 C11.370,7.953 11.435,8.343 11.563,8.705 C11.692,9.067 11.877,9.382 12.118,9.650 C12.359,9.918 12.656,10.129 13.007,10.281 C13.358,10.434 13.753,10.511 14.193,10.511 C14.547,10.511 14.871,10.457 15.166,10.350 C15.461,10.243 15.718,10.087 15.938,9.883 C16.158,9.680 16.335,9.433 16.469,9.143 C16.603,8.854 16.686,8.530 16.718,8.170 C16.718,8.170 15.496,8.170 15.496,8.170 C15.447,8.556 15.315,8.867 15.098,9.103 C14.880,9.339 14.579,9.457 14.193,9.457 C13.909,9.457 13.668,9.402 13.469,9.292 C13.271,9.182 13.110,9.036 12.987,8.854 C12.863,8.672 12.774,8.467 12.717,8.239 C12.661,8.011 12.633,7.776 12.633,7.535 C12.633,7.283 12.661,7.039 12.717,6.803 Z" id="path-1" class="cls-2" fill-rule="evenodd"/>
</svg>
