<svg xmlns="http://www.w3.org/2000/svg" xmlns:xlink="http://www.w3.org/1999/xlink" preserveAspectRatio="xMidYMid" width="27" height="20" viewBox="0 0 27 20">
  <path d="M4.000,16.000 C4.000,16.000 4.000,4.000 4.000,4.000 C4.000,4.000 23.000,4.000 23.000,4.000 C23.000,4.000 23.000,16.000 23.000,16.000 C23.000,16.000 4.000,16.000 4.000,16.000 ZM22.000,5.000 C22.000,5.000 5.000,5.000 5.000,5.000 C5.000,5.000 5.000,15.000 5.000,15.000 C5.000,15.000 22.000,15.000 22.000,15.000 C22.000,15.000 22.000,5.000 22.000,5.000 ZM8.659,7.880 C8.901,7.607 9.197,7.392 9.548,7.237 C9.899,7.081 10.294,7.003 10.734,7.003 C11.050,7.003 11.349,7.049 11.631,7.140 C11.912,7.231 12.164,7.364 12.387,7.538 C12.609,7.713 12.793,7.928 12.937,8.186 C13.082,8.443 13.173,8.738 13.211,9.070 C13.211,9.070 11.989,9.070 11.989,9.070 C11.967,8.925 11.919,8.793 11.844,8.672 C11.769,8.552 11.675,8.446 11.562,8.354 C11.450,8.263 11.322,8.192 11.180,8.141 C11.038,8.090 10.890,8.065 10.734,8.065 C10.450,8.065 10.209,8.120 10.010,8.230 C9.812,8.340 9.651,8.487 9.528,8.672 C9.405,8.857 9.315,9.068 9.258,9.303 C9.202,9.539 9.174,9.783 9.174,10.035 C9.174,10.276 9.202,10.511 9.258,10.739 C9.315,10.967 9.405,11.172 9.528,11.354 C9.651,11.536 9.812,11.682 10.010,11.792 C10.209,11.902 10.450,11.957 10.734,11.957 C11.120,11.957 11.422,11.839 11.639,11.603 C11.856,11.367 11.989,11.056 12.037,10.670 C12.037,10.670 13.259,10.670 13.259,10.670 C13.227,11.030 13.144,11.354 13.010,11.643 C12.876,11.933 12.699,12.180 12.479,12.383 C12.259,12.587 12.002,12.743 11.707,12.850 C11.412,12.957 11.088,13.011 10.734,13.011 C10.294,13.011 9.899,12.934 9.548,12.781 C9.197,12.629 8.901,12.418 8.659,12.150 C8.418,11.882 8.233,11.567 8.105,11.205 C7.976,10.843 7.911,10.453 7.911,10.035 C7.911,9.606 7.976,9.208 8.105,8.841 C8.233,8.474 8.418,8.153 8.659,7.880 ZM14.618,7.880 C14.859,7.607 15.156,7.392 15.507,7.237 C15.858,7.081 16.253,7.003 16.693,7.003 C17.009,7.003 17.308,7.049 17.590,7.140 C17.871,7.231 18.123,7.364 18.345,7.538 C18.568,7.713 18.752,7.928 18.896,8.186 C19.041,8.443 19.132,8.738 19.170,9.070 C19.170,9.070 17.947,9.070 17.947,9.070 C17.926,8.925 17.878,8.793 17.803,8.672 C17.727,8.552 17.634,8.446 17.521,8.354 C17.409,8.263 17.281,8.192 17.139,8.141 C16.997,8.090 16.848,8.065 16.693,8.065 C16.409,8.065 16.167,8.120 15.969,8.230 C15.771,8.340 15.610,8.487 15.487,8.672 C15.363,8.857 15.274,9.068 15.217,9.303 C15.161,9.539 15.133,9.783 15.133,10.035 C15.133,10.276 15.161,10.511 15.217,10.739 C15.274,10.967 15.363,11.172 15.487,11.354 C15.610,11.536 15.771,11.682 15.969,11.792 C16.167,11.902 16.409,11.957 16.693,11.957 C17.079,11.957 17.380,11.839 17.598,11.603 C17.815,11.367 17.947,11.056 17.996,10.670 C17.996,10.670 19.218,10.670 19.218,10.670 C19.186,11.030 19.103,11.354 18.969,11.643 C18.835,11.933 18.658,12.180 18.438,12.383 C18.218,12.587 17.961,12.743 17.666,12.850 C17.371,12.957 17.047,13.011 16.693,13.011 C16.253,13.011 15.858,12.934 15.507,12.781 C15.156,12.629 14.859,12.418 14.618,12.150 C14.377,11.882 14.192,11.567 14.063,11.205 C13.935,10.843 13.870,10.453 13.870,10.035 C13.870,9.606 13.935,9.208 14.063,8.841 C14.192,8.474 14.377,8.153 14.618,7.880 Z" id="path-1" class="cls-2" fill-rule="evenodd"/>
</svg>
