<svg xmlns="http://www.w3.org/2000/svg" xmlns:xlink="http://www.w3.org/1999/xlink" preserveAspectRatio="xMidYMid" width="31" height="27" viewBox="0 0 31 27">
  <path d="M1.500,25.500 C1.500,25.500 15.500,1.500 15.500,1.500 C15.500,1.500 29.500,25.500 29.500,25.500 C29.500,25.500 1.500,25.500 1.500,25.500 ZM15.500,22.500 C16.052,22.500 16.500,22.052 16.500,21.500 C16.500,20.948 16.052,20.500 15.500,20.500 C14.948,20.500 14.500,20.948 14.500,21.500 C14.500,22.052 14.948,22.500 15.500,22.500 ZM16.500,9.500 C16.500,8.948 16.052,8.500 15.500,8.500 C14.948,8.500 14.500,8.948 14.500,9.500 C14.500,9.500 14.500,17.500 14.500,17.500 C14.500,18.052 14.948,18.500 15.500,18.500 C16.052,18.500 16.500,18.052 16.500,17.500 C16.500,17.500 16.500,9.500 16.500,9.500 Z" id="path-1" class="cls-2" fill-rule="evenodd"/>
</svg>
