<svg xmlns="http://www.w3.org/2000/svg" xmlns:xlink="http://www.w3.org/1999/xlink" preserveAspectRatio="xMidYMid" width="15" height="15" viewBox="0 0 15 15">
  <path d="M13.499,1.502 C13.499,1.502 13.498,6.820 13.498,6.820 C13.498,6.820 11.779,5.101 11.779,5.101 C11.779,5.101 9.432,7.449 9.432,7.449 C9.432,7.449 7.551,5.568 7.551,5.568 C7.551,5.568 9.899,3.221 9.899,3.221 C9.899,3.221 8.180,1.502 8.180,1.502 C8.180,1.502 13.499,1.502 13.499,1.502 ZM6.820,13.498 C6.820,13.498 1.502,13.498 1.502,13.498 C1.502,13.498 1.502,8.180 1.502,8.180 C1.502,8.180 3.221,9.898 3.221,9.898 C3.221,9.898 5.569,7.551 5.569,7.551 C5.569,7.551 7.449,9.431 7.449,9.431 C7.449,9.431 5.101,11.779 5.101,11.779 C5.101,11.779 6.820,13.498 6.820,13.498 Z" id="path-1" class="cls-2" fill-rule="evenodd"/>
</svg>
