<svg xmlns="http://www.w3.org/2000/svg" xmlns:xlink="http://www.w3.org/1999/xlink" preserveAspectRatio="xMidYMid" width="27" height="20" viewBox="0 0 27 20">
  <path d="M4.000,16.000 C4.000,16.000 4.000,4.000 4.000,4.000 C4.000,4.000 23.000,4.000 23.000,4.000 C23.000,4.000 23.000,16.000 23.000,16.000 C23.000,16.000 4.000,16.000 4.000,16.000 ZM22.000,5.000 C22.000,5.000 5.000,5.000 5.000,5.000 C5.000,5.000 5.000,15.000 5.000,15.000 C5.000,15.000 22.000,15.000 22.000,15.000 C22.000,15.000 22.000,5.000 22.000,5.000 ZM9.290,9.302 C9.290,9.302 11.715,9.302 11.715,9.302 C11.715,9.302 11.715,7.002 11.715,7.002 C11.715,7.002 13.002,7.002 13.002,7.002 C13.002,7.002 13.002,12.995 13.002,12.995 C13.002,12.995 11.715,12.995 11.715,12.995 C11.715,12.995 11.715,10.409 11.715,10.409 C11.715,10.409 9.290,10.409 9.290,10.409 C9.290,10.409 9.290,12.995 9.290,12.995 C9.290,12.995 7.972,12.995 7.972,12.995 C7.972,12.995 7.972,7.002 7.972,7.002 C7.972,7.002 9.290,7.002 9.290,7.002 C9.290,7.002 9.290,9.302 9.290,9.302 ZM17.418,7.186 C17.751,7.310 18.039,7.494 18.282,7.740 C18.526,7.987 18.716,8.294 18.853,8.664 C18.990,9.033 19.059,9.467 19.059,9.965 C19.059,10.401 19.003,10.804 18.891,11.173 C18.779,11.543 18.610,11.862 18.383,12.130 C18.156,12.399 17.874,12.610 17.535,12.764 C17.197,12.918 16.798,12.995 16.339,12.995 C16.339,12.995 13.973,12.995 13.973,12.995 C13.973,12.995 13.973,7.002 13.973,7.002 C13.973,7.002 16.339,7.002 16.339,7.002 C16.725,7.002 17.085,7.063 17.418,7.186 ZM15.291,8.110 C15.291,8.110 15.291,11.887 15.291,11.887 C15.291,11.887 16.247,11.887 16.247,11.887 C16.437,11.887 16.622,11.856 16.801,11.794 C16.980,11.733 17.139,11.631 17.279,11.488 C17.419,11.345 17.531,11.159 17.615,10.930 C17.699,10.701 17.741,10.421 17.741,10.091 C17.741,9.788 17.712,9.516 17.653,9.272 C17.594,9.029 17.498,8.820 17.363,8.647 C17.229,8.473 17.051,8.340 16.830,8.248 C16.609,8.156 16.336,8.110 16.012,8.110 C16.012,8.110 15.291,8.110 15.291,8.110 Z" id="path-1" class="cls-2" fill-rule="evenodd"/>
</svg>
