<svg xmlns="http://www.w3.org/2000/svg" xmlns:xlink="http://www.w3.org/1999/xlink" preserveAspectRatio="xMidYMid" width="22" height="15" viewBox="0 0 22 15">
  <path d="M18.500,13.500 C18.500,13.500 3.500,13.500 3.500,13.500 C2.395,13.500 1.500,12.605 1.500,11.500 C1.500,11.500 1.500,3.500 1.500,3.500 C1.500,2.395 2.395,1.500 3.500,1.500 C3.500,1.500 18.500,1.500 18.500,1.500 C19.605,1.500 20.500,2.395 20.500,3.500 C20.500,3.500 20.500,11.500 20.500,11.500 C20.500,12.605 19.605,13.500 18.500,13.500 ZM10.502,4.502 C10.502,4.502 9.215,4.502 9.215,4.502 C9.215,4.502 9.215,6.802 9.215,6.802 C9.215,6.802 6.790,6.802 6.790,6.802 C6.790,6.802 6.790,4.502 6.790,4.502 C6.790,4.502 5.472,4.502 5.472,4.502 C5.472,4.502 5.472,10.495 5.472,10.495 C5.472,10.495 6.790,10.495 6.790,10.495 C6.790,10.495 6.790,7.910 6.790,7.910 C6.790,7.910 9.215,7.910 9.215,7.910 C9.215,7.910 9.215,10.495 9.215,10.495 C9.215,10.495 10.502,10.495 10.502,10.495 C10.502,10.495 10.502,4.502 10.502,4.502 ZM16.353,6.164 C16.216,5.794 16.026,5.487 15.782,5.240 C15.539,4.994 15.251,4.810 14.918,4.686 C14.585,4.563 14.225,4.502 13.839,4.502 C13.839,4.502 11.473,4.502 11.473,4.502 C11.473,4.502 11.473,10.495 11.473,10.495 C11.473,10.495 13.839,10.495 13.839,10.495 C14.298,10.495 14.697,10.418 15.035,10.264 C15.374,10.110 15.656,9.899 15.883,9.630 C16.110,9.362 16.279,9.043 16.391,8.673 C16.503,8.304 16.559,7.901 16.559,7.465 C16.559,6.967 16.490,6.533 16.353,6.164 ZM14.779,8.988 C14.639,9.131 14.480,9.233 14.301,9.294 C14.122,9.356 13.937,9.387 13.747,9.387 C13.747,9.387 12.791,9.387 12.791,9.387 C12.791,9.387 12.791,5.610 12.791,5.610 C12.791,5.610 13.512,5.610 13.512,5.610 C13.836,5.610 14.109,5.656 14.330,5.748 C14.551,5.840 14.729,5.973 14.863,6.147 C14.998,6.320 15.094,6.529 15.153,6.772 C15.212,7.016 15.241,7.288 15.241,7.591 C15.241,7.921 15.199,8.201 15.115,8.430 C15.031,8.659 14.919,8.845 14.779,8.988 Z" id="path-1" class="cls-2" fill-rule="evenodd"/>
</svg>
