<svg xmlns="http://www.w3.org/2000/svg" xmlns:xlink="http://www.w3.org/1999/xlink" preserveAspectRatio="xMidYMid" width="27" height="31" viewBox="0 0 27 31">
  <path d="M23.826,11.408 C24.882,13.195 25.500,15.273 25.500,17.500 C25.500,24.127 20.127,29.500 13.500,29.500 C6.873,29.500 1.500,24.127 1.500,17.500 C1.500,10.873 6.873,5.500 13.500,5.500 C13.500,5.500 13.500,1.500 13.500,1.500 C13.500,1.500 23.500,6.937 23.500,6.937 C23.500,6.937 13.500,12.500 13.500,12.500 C13.500,12.500 13.500,8.500 13.500,8.500 C8.529,8.500 4.500,12.529 4.500,17.500 C4.500,22.471 8.529,26.500 13.500,26.500 C18.471,26.500 22.500,22.471 22.500,17.500 C22.500,15.803 22.021,14.221 21.205,12.866 C21.205,12.866 23.826,11.408 23.826,11.408 Z" id="path-1" class="cls-2" fill-rule="evenodd"/>
</svg>
