<svg xmlns="http://www.w3.org/2000/svg" xmlns:xlink="http://www.w3.org/1999/xlink" preserveAspectRatio="xMidYMid" width="19" height="17" viewBox="0 0 19 17">
  <path d="M14.866,14.994 C14.866,14.994 14.268,14.473 14.268,14.473 C15.774,12.919 16.700,10.815 16.700,8.494 C16.700,6.173 15.774,4.068 14.268,2.514 C14.268,2.514 14.866,1.994 14.866,1.994 C16.497,3.687 17.500,5.973 17.500,8.494 C17.500,11.015 16.497,13.301 14.866,14.994 ZM12.489,13.089 C12.489,13.089 11.886,12.564 11.886,12.564 C13.006,11.555 13.713,10.108 13.713,8.494 C13.713,6.880 13.006,5.433 11.886,4.423 C11.886,4.423 12.489,3.899 12.489,3.899 C13.732,5.050 14.513,6.680 14.513,8.494 C14.513,10.308 13.732,11.938 12.489,13.089 ZM9.646,10.453 C10.282,10.027 10.700,9.309 10.700,8.494 C10.700,7.679 10.282,6.960 9.646,6.535 C9.646,6.535 10.258,6.002 10.258,6.002 C11.012,6.579 11.500,7.480 11.500,8.494 C11.500,9.508 11.012,10.408 10.258,10.985 C10.258,10.985 9.646,10.453 9.646,10.453 ZM1.500,10.528 C1.500,10.528 1.500,6.522 1.500,6.522 C1.500,6.522 4.490,6.522 4.490,6.522 C4.490,6.522 8.488,3.553 8.488,3.553 C8.488,3.553 8.488,13.497 8.488,13.497 C8.488,13.497 4.490,10.528 4.490,10.528 C4.490,10.528 1.500,10.528 1.500,10.528 Z" id="path-1" class="cls-2" fill-rule="evenodd"/>
</svg>
