<?xml version="1.0" encoding="utf-8"?>
<!-- Generator: Adobe Illustrator 18.1.1, SVG Export Plug-In . SVG Version: 6.00 Build 0)  -->
<svg version="1.1" id="Layer_1" xmlns="http://www.w3.org/2000/svg" xmlns:xlink="http://www.w3.org/1999/xlink" x="0px" y="0px"
	 width="561.1px" height="433.6px" viewBox="25.5 179.2 561.1 433.6" enable-background="new 25.5 179.2 561.1 433.6"
	 xml:space="preserve">
<g transform="translate(239 799)">
	<path d="M296.5-568.7v255H169l51,51h114.8c6.6,0.4,12.3-4.6,12.8-11.3c0-0.5,0-1,0-1.5V-607c0.4-6.6-4.6-12.3-11.3-12.8
		c-0.5,0-1,0-1.5,0h-535.5c-6.6-0.4-12.3,4.6-12.8,11.3c0,0.5,0,1,0,1.5v331.5c-0.4,6.6,4.6,12.3,11.3,12.8c0.5,0,1,0,1.5,0H-86
		l51-51h-127.5v-255H296.5 M-86-186.2L67-364.7l153,178.5L-86-186.2L-86-186.2z"/>
</g>
</svg>
