<?xml version="1.0" encoding="utf-8"?>
<!-- Generator: Adobe Illustrator 21.1.0, SVG Export Plug-In . SVG Version: 6.00 Build 0)  -->
<svg version="1.1" id="Layer_1" xmlns="http://www.w3.org/2000/svg" xmlns:xlink="http://www.w3.org/1999/xlink" x="0px" y="0px"
	 width="495px" height="382.5px" viewBox="0 0 495 382.5" style="enable-background:new 0 0 495 382.5;" xml:space="preserve">
<style type="text/css">
	.st0{fill:#FFFFFF;}
</style>
<path class="st0" d="M495,11.2v292.5c0.4,5.9-4.1,10.9-10,11.2c-0.4,0-0.9,0-1.3,0h-99l-38.2-45H450v-225H45v225h105.8l-38.2,45
	H11.4c-5.9,0.4-10.9-4.1-11.2-10c0-0.4,0-0.9,0-1.3V11.1c-0.4-5.9,4.1-10.9,10-11.2c0.4,0,0.9,0,1.3,0h472.2
	c5.9-0.4,10.9,4.1,11.2,10C495,10.4,495,10.8,495,11.2z M213.7,195.8l33.8-40.5l33.8,40.5l24.8,29.2h99V90h-315v135h99L213.7,195.8z
	 M382.5,382.5L247.5,225l-135,157.5H382.5z"/>
</svg>
