<?xml version="1.0" encoding="utf-8"?>
<!-- Generator: Adobe Illustrator 21.1.0, SVG Export Plug-In . SVG Version: 6.00 Build 0)  -->
<svg version="1.1" id="Layer_1" xmlns="http://www.w3.org/2000/svg" xmlns:xlink="http://www.w3.org/1999/xlink" x="0px" y="0px"
	 width="433.6px" height="433.6px" viewBox="0 0 433.6 433.6" style="enable-background:new 0 0 433.6 433.6;" xml:space="preserve"
	>
<style type="text/css">
	.st0{fill:#FFFFFF;}
</style>
<path class="st0" d="M0,0h408v51H0V0z M0,153h408v-51H0V153z M0,255h153v-51H0V255z M318.8,204C259,200.6,207.7,246.2,204,306v127.5
	h51c13.3,0.8,24.7-9.3,25.5-22.6c0.1-1,0.1-1.9,0-2.9v-51c0.8-13.3-9.3-24.7-22.6-25.5c-1-0.1-1.9-0.1-2.9,0h-25.5V306
	c3.7-45.7,43.5-79.9,89.2-76.5c45.7-3.4,85.6,30.8,89.2,76.5v25.5h-25.3c-13.3-0.8-24.7,9.3-25.5,22.6c-0.1,1-0.1,1.9,0,2.9v51
	c-0.8,13.3,9.3,24.7,22.6,25.5c1,0.1,1.9,0.1,2.9,0h51V306C429.9,246.3,378.6,200.7,318.8,204z"/>
</svg>
