<svg class="jw-svg-icon jw-svg-icon-audio-tracks" xmlns="http://www.w3.org/2000/svg" viewBox="0 0 240 240"><path d="M35,34h160v20H35V34z M35,94h160V74H35V94z M35,134h60v-20H35V134z M160,114c-23.4-1.3-43.6,16.5-45,40v50h20c5.2,0.3,9.7-3.6,10-8.9c0-0.4,0-0.7,0-1.1v-20c0.3-5.2-3.6-9.7-8.9-10c-0.4,0-0.7,0-1.1,0h-10v-10c1.5-17.9,17.1-31.3,35-30c17.9-1.3,33.6,12.1,35,30v10H185c-5.2-0.3-9.7,3.6-10,8.9c0,0.4,0,0.7,0,1.1v20c-0.3,5.2,3.6,9.7,8.9,10c0.4,0,0.7,0,1.1,0h20v-50C203.5,130.6,183.4,112.7,160,114z"/></svg>