<svg xmlns="http://www.w3.org/2000/svg" class="jw-svg-icon jw-svg-icon-cc-off" viewBox="0 0 240 240" focusable="false"><path d="M99.4,97.8c-2.4-0.2-4.8,0.7-6.6,2.3c-1.7,1.7-2.5,4.1-2.4,6.5v25.6c0,9.6,11.6,11.4,17.7,5.5c0.7-0.7,1.5-1.5,2.4-2.3l6.6,7.8c-2.2,2.4-5,4.4-8,5.8c-8,3.5-17.3,2.4-24.3-2.9c-3.9-3.6-5.9-8.7-5.5-14v-25.6c0-2.7,0.5-5.3,1.5-7.8c0.9-2.2,2.4-4.3,4.2-5.9c5.7-4.5,13.2-6.2,20.3-4.6c3.3,0.5,6.3,2,8.7,4.3c1.3,1.3,2.5,2.6,3.5,4.2l-7.1,6.9C107.9,100,103.8,97.8,99.4,97.8z M144.1,97.8c-2.4-0.2-4.8,0.7-6.6,2.3c-1.7,1.7-2.5,4.1-2.4,6.5v25.6c0,9.6,11.6,11.4,17.7,5.5c0.7-0.7,1.5-1.5,2.4-2.3l6.6,7.8c-2.2,2.4-5,4.4-8,5.8c-8,3.5-17.3,2.4-24.3-2.9c-3.9-3.6-5.9-8.7-5.5-14v-25.6c0-2.7,0.5-5.3,1.5-7.8c0.9-2.2,2.4-4.3,4.2-5.9c5.7-4.5,13.2-6.2,20.3-4.6c3.3,0.5,6.3,2,8.7,4.3c1.3,1.3,2.5,2.6,3.5,4.2l-7.1,6.9C152.6,100,148.5,97.8,144.1,97.8L144.1,97.8z M200,60v120H40V60H200 M215,40H25c-2.7,0-5,2.2-5,5v150c0,2.7,2.2,5,5,5h190c2.7,0,5-2.2,5-5V45C220,42.2,217.8,40,215,40z"/></svg>