<?xml version="1.0" encoding="utf-8"?>
<!-- Generator: Adobe Illustrator 21.1.0, SVG Export Plug-In . SVG Version: 6.00 Build 0)  -->
<svg version="1.1" id="Layer_1" xmlns="http://www.w3.org/2000/svg" xmlns:xlink="http://www.w3.org/1999/xlink" x="0px" y="0px"
	 width="510.1px" height="408.1px" viewBox="0 0 510.1 408.1" style="enable-background:new 0 0 510.1 408.1;" xml:space="preserve"
	>
<style type="text/css">
	.st0{fill:#FFFFFF;}
</style>
<g transform="translate(503 990)">
	<path class="st0" d="M-300.5-842.6c-6.2-0.4-12.3,1.7-16.9,5.8c-4.3,4.4-6.5,10.5-6.1,16.6v65.2c0,24.4,29.7,29,45.2,14.1
		c1.8-1.8,3.9-3.7,6.2-5.8l16.8,20c-5.7,6.2-12.7,11.3-20.4,14.8c-20.5,8.8-44.2,6-62.1-7.3c-9.9-9.1-15.1-22.3-14.1-35.7v-65.2
		c-0.1-6.8,1.2-13.6,3.8-19.8c2.4-5.7,6-10.9,10.7-15c14.6-11.5,33.6-15.8,51.8-11.7c8.3,1.4,16.1,5.2,22.3,11
		c3.3,3.2,6.3,6.7,8.8,10.6l-18.1,17.7C-278.8-836.9-289.2-842.6-300.5-842.6z M-186.4-842.6c-6.2-0.4-12.3,1.7-16.9,5.8
		c-4.3,4.4-6.5,10.5-6.1,16.6v65.2c0,24.4,29.7,29,45.2,14.1c1.8-1.8,3.9-3.7,6.2-5.8l16.8,20c-5.7,6.2-12.7,11.3-20.4,14.8
		c-20.5,8.8-44.2,6-62.1-7.3c-9.9-9.1-15.1-22.3-14.1-35.7v-65.2c-0.1-6.8,1.2-13.6,3.8-19.8c2.4-5.7,6-10.9,10.7-15
		c14.6-11.5,33.6-15.8,51.8-11.7c8.3,1.4,16.1,5.2,22.3,11c3.3,3.2,6.3,6.7,8.8,10.6l-18.1,17.7
		C-164.7-836.9-175.2-842.6-186.4-842.6L-186.4-842.6z M-43.9-939v306h-408v-306H-43.9 M-5.7-990h-484.5c-7,0-12.8,5.7-12.8,12.8
		v382.5c0,7,5.7,12.8,12.8,12.8H-5.7c7,0,12.8-5.7,12.8-12.8v-382.5C7.1-984.3,1.4-990-5.7-990z"/>
</g>
</svg>
