<svg xmlns="http://www.w3.org/2000/svg" class="jw-svg-icon jw-svg-icon-chromecast-off" viewBox="0 0 240 240"><path d="M84.5,205h-15c0.1-35.8-28.9-64.9-64.7-65c-0.1,0-0.2,0-0.3,0v-15C48.6,125.1,84.3,160.8,84.5,205z M4.5,155v15c19.2,0.2,34.8,15.8,35,35h15c0.3-27.3-21.7-49.7-49-50C5.1,155,4.8,155,4.5,155z M4.5,185v20h20C24.5,193.9,15.5,185,4.5,185z M229.5,35h-210c-2.6-0.2-4.8,1.8-5,4.4c0,0.2,0,0.4,0,0.6v61c6.8,0.7,13.5,2.1,20,4V55h180v120h-109c1.9,6.5,3.3,13.2,4,20h121c2.6,0.2,4.8-1.8,5-4.4c0-0.2,0-0.4,0-0.6V40C234.8,37.2,232.4,35.1,229.5,35z"/></svg>