<svg xmlns="http://www.w3.org/2000/svg" class="jw-svg-icon jw-svg-icon-chromecast-on" viewBox="0 0 240 240"><path d="M84.6,205h-15c0.1-35.8-28.9-64.9-64.7-65c-0.1,0-0.2,0-0.3,0v-15C48.7,125.1,84.4,160.8,84.6,205z M4.6,155v15c19.2,0.2,34.7,15.8,35,35h15c0.3-27.3-21.7-49.7-49-50C5.3,155,4.9,155,4.6,155z M4.6,185v20h20C24.5,193.9,15.6,185,4.6,185z M229.5,35H19.6c-2.6-0.2-4.8,1.8-5,4.4c0,0.2,0,0.4,0,0.6v61c6.8,0.8,13.5,2.1,20,4V55h179.9v120h-109c1.9,6.5,3.2,13.2,4,20h120.9c2.6,0.2,4.8-1.8,5-4.4c0-0.2,0-0.4,0-0.6V40C234.9,37.1,232.4,35.1,229.5,35z M54.6,75v38c17.9,9.4,32.6,24.1,42,42h98V75H54.6z"/></svg>