<?xml version="1.0" encoding="utf-8"?>
<!-- Generator: Adobe Illustrator 21.1.0, SVG Export Plug-In . SVG Version: 6.00 Build 0)  -->
<svg version="1.1" id="Layer_1" xmlns="http://www.w3.org/2000/svg" xmlns:xlink="http://www.w3.org/1999/xlink" x="0px" y="0px"
	 width="519.8px" height="382.5px" viewBox="0 0 519.8 382.5" style="enable-background:new 0 0 519.8 382.5;" xml:space="preserve"
	>
<style type="text/css">
	.st0{fill:#FFFFFF;}
</style>
<g transform="translate(-710 1563)">
	<path class="st0" d="M890-1180.5h-33.8c0.2-80.6-65.1-146.1-145.7-146.2c-0.2,0-0.4,0-0.6,0v-33.8
		C809.3-1360.2,889.7-1279.8,890-1180.5z M710-1293v33.8c43.3,0.5,78.2,35.5,78.8,78.8h33.8c0.6-61.5-48.8-111.9-110.3-112.5
		C711.5-1293,710.7-1293,710-1293z M710-1225.5v45h45C754.9-1205.3,734.8-1225.4,710-1225.5z M1216.2-1563H743.8
		c-5.9-0.4-10.9,4.1-11.2,10c0,0.4,0,0.9,0,1.3v137.2c15.2,1.7,30.3,4.7,45,9V-1518h405v270H937.2c4.3,14.7,7.3,29.8,9,45h272.2
		c5.9,0.4,10.9-4.1,11.2-10c0-0.4,0-0.9,0-1.3v-337.5C1228.4-1558.2,1222.8-1562.8,1216.2-1563z M822.5-1473v85.5
		c40.3,21.2,73.3,54.2,94.5,94.5h220.5v-180H822.5z"/>
</g>
</svg>
