<?xml version="1.0" encoding="utf-8"?>
<!-- Generator: Adobe Illustrator 21.1.0, SVG Export Plug-In . SVG Version: 6.00 Build 0)  -->
<svg version="1.1" id="Layer_1" xmlns="http://www.w3.org/2000/svg" xmlns:xlink="http://www.w3.org/1999/xlink" x="0px" y="0px"
	 width="589.1px" height="433.5px" viewBox="0 0 589.1 433.5" style="enable-background:new 0 0 589.1 433.5;" xml:space="preserve"
	>
<style type="text/css">
	.st0{fill:#FFFFFF;}
</style>
<g transform="translate(239 945)">
	<path class="st0" d="M-35-511.5h-38.2c0.2-91.4-73.7-165.6-165.1-165.8c-0.2,0-0.4,0-0.7,0v-38.2C-126.5-715.2-35.4-624.1-35-511.5
		z M-239-639v38.2c49,0.6,88.7,40.2,89.2,89.2h38.2c0.7-69.7-55.3-126.8-125-127.5C-237.4-639-238.2-639-239-639z M-239-562.5v51h51
		C-188.1-539.7-210.9-562.5-239-562.5z M334.7-945h-535.5c-6.6-0.4-12.3,4.6-12.8,11.3c0,0.5,0,1,0,1.5v155.5
		c17.3,1.9,34.3,5.3,51,10.2V-894h459v306H18.5c4.9,16.7,8.3,33.7,10.2,51h308.6c6.6,0.4,12.3-4.6,12.8-11.3c0-0.5,0-1,0-1.5v-382.5
		C348.4-939.5,342.1-944.8,334.7-945z"/>
</g>
</svg>
