<?xml version="1.0" encoding="utf-8"?>
<!-- Generator: Adobe Illustrator 21.1.0, SVG Export Plug-In . SVG Version: 6.00 Build 0)  -->
<svg version="1.1" id="Layer_1" xmlns="http://www.w3.org/2000/svg" xmlns:xlink="http://www.w3.org/1999/xlink" x="0px" y="0px"
	 width="313.6px" height="313.6px" viewBox="0 0 313.6 313.6" style="enable-background:new 0 0 313.6 313.6;" xml:space="preserve"
	>
<style type="text/css">
	.st0{fill:#FFFFFF;}
</style>
<g transform="translate(157 1395)">
	<path class="st0" d="M35.5-1238.2l117.3-117.3c4.9-4.7,5.1-12.5,0.4-17.4c-0.1-0.1-0.3-0.3-0.4-0.4l-17.9-17.8
		c-4.7-4.9-12.5-5.1-17.4-0.4c-0.1,0.1-0.3,0.3-0.4,0.4L-0.2-1273.9l-117.3-117.3c-4.7-4.9-12.5-5.1-17.4-0.4
		c-0.1,0.1-0.3,0.3-0.4,0.4l-17.9,17.8c-4.9,4.7-5.1,12.5-0.4,17.4c0.1,0.1,0.3,0.3,0.4,0.4l117.3,117.4l-117.3,117.3
		c-4.9,4.7-5.1,12.5-0.4,17.4c0.1,0.1,0.3,0.3,0.4,0.4l17.8,17.9c4.7,4.9,12.5,5.1,17.4,0.4c0.1-0.1,0.3-0.3,0.4-0.4l117.4-117.3
		l117.3,117.3c4.7,4.9,12.5,5.1,17.4,0.4c0.1-0.1,0.3-0.3,0.4-0.4l17.9-17.9c4.9-4.7,5.1-12.5,0.4-17.4c-0.1-0.1-0.3-0.3-0.4-0.4
		L35.5-1238.2z"/>
</g>
</svg>
