<?xml version="1.0" encoding="utf-8"?>
<!-- Generator: Adobe Illustrator 21.1.0, SVG Export Plug-In . SVG Version: 6.00 Build 0)  -->
<svg version="1.1" id="Layer_1" xmlns="http://www.w3.org/2000/svg" xmlns:xlink="http://www.w3.org/1999/xlink" x="0px" y="0px"
	 width="427px" height="347.7px" viewBox="0 0 427 347.7" style="enable-background:new 0 0 427 347.7;" xml:space="preserve">
<style type="text/css">
	.st0{fill:#FFFFFF;}
</style>
<g transform="translate(266 969)">
	<path class="st0" d="M-113-888.3l173,93.1l-172.9,93.1v-186.1 M-157.5-969c-3.9,0-6.5,3-6.5,8.1v331.5c0,5.1,2.6,8.1,6.5,8.1
		c1.7-0.1,3.3-0.5,4.8-1.4l309-166.5c6.2-3.3,6.2-8.8,0-12.1l-309-166.4C-154.2-968.5-155.8-969-157.5-969L-157.5-969z M-215-642.2
		h25.5v-306H-215V-642.2z M-266-667.7h25.5v-255H-266V-667.7z"/>
</g>
</svg>
