<svg xmlns="http://www.w3.org/2000/svg" class="jw-svg-icon jw-svg-icon-dvr" viewBox="60 0 359.9 240"><path d="M399.9,60v120H80V60H399.9 M414.9,40H65c-2.7,0-5,2.2-5,5v149.9c0,2.7,2.2,5,5,5h349.9c2.7,0,5-2.2,5-5V45C419.9,42.2,417.7,40,414.9,40z M216.6,88.8v51.3h22.7v9.9h-33.5V88.8L216.6,88.8L216.6,88.8z M249.2,88.8h11.2V150h-11.2V88.8z M282.1,88.8l12,45.2l12.2-45.2h11.4L300.6,150h-13L271,88.8H282.1z M335.7,123.7v16.4h20.9v9.9H325V88.8h30.1v9.9h-19.4v15.6H352v9.4L335.7,123.7L335.7,123.7z M140,90c-16.6,0-30,13.4-30,30s13.4,30,30,30s30-13.4,30-30S156.6,90,140,90z M160,119.9c0,3.5-1,7.1-2.9,10.1l-27.2-27.2c9.4-5.6,21.6-2.6,27.2,6.8C159.1,112.7,160,116.3,160,119.9z M120,119.9c0-3.5,1-7.1,2.9-10.1l27.2,27.2c-9.4,5.6-21.6,2.6-27.2-6.8C121,127.1,120,123.6,120,119.9z"/></svg>