<?xml version="1.0" encoding="utf-8"?>
<!-- Generator: Adobe Illustrator 21.1.0, SVG Export Plug-In . SVG Version: 6.00 Build 0)  -->
<svg version="1.1" id="dvrIcon" class="jw-svg-icon jw-icon-live" xmlns="http://www.w3.org/2000/svg" xmlns:xlink="http://www.w3.org/1999/xlink" x="0px" y="0px"
	 width="579.9px" height="257.8px" viewBox="0 0 579.9 257.8" style="enable-background:new 0 0 579.9 257.8;" xml:space="preserve"
	>
<style type="text/css">
	.jw-icon-live{fill:#FFFFFF;}
</style>
<g transform="translate(980 1600)">
	<path d="M-432.3-1567.8v193.3h-515.4v-193.3H-432.3 M-408.2-1600h-563.7c-4.4,0-8.1,3.6-8.1,8.1v241.6
		c0,4.4,3.6,8.1,8.1,8.1h563.7c4.4,0,8.1-3.6,8.1-8.1v-241.6C-400.1-1596.4-403.7-1600-408.2-1600z M-727.6-1521.4v82.6h36.5v15.9
		H-745v-98.6L-727.6-1521.4L-727.6-1521.4z M-675.1-1521.4h18v98.6h-18V-1521.4z M-622.2-1521.4l19.3,72.9l19.7-72.9h18.3
		l-27.5,98.6h-20.9l-26.7-98.6H-622.2z M-535.8-1465.2v26.4h33.6v15.9h-50.9v-98.6h48.5v15.9h-31.2v25.1h26.2v15.2L-535.8-1465.2
		L-535.8-1465.2z M-851.1-1519.5c-26.7,0-48.3,21.6-48.3,48.3c0,26.7,21.6,48.3,48.3,48.3s48.3-21.6,48.3-48.3
		C-802.8-1497.9-824.4-1519.5-851.1-1519.5z M-818.8-1471.2c0,5.7-1.6,11.4-4.6,16.3l-43.9-43.9c15.2-9.1,34.8-4.2,43.9,11
		C-820.4-1482.8-818.8-1477.1-818.8-1471.2z M-883.3-1471.2c0-5.7,1.6-11.4,4.6-16.3l43.9,43.9c-15.2,9.1-34.8,4.2-43.9-11
		C-881.7-1459.6-883.3-1465.3-883.3-1471.2z"/>
</g>
</svg>
