<?xml version="1.0" encoding="utf-8"?>
<!-- Generator: Adobe Illustrator 21.1.0, SVG Export Plug-In . SVG Version: 6.00 Build 0)  -->
<svg version="1.1" id="Layer_1" xmlns="http://www.w3.org/2000/svg" xmlns:xlink="http://www.w3.org/1999/xlink" x="0px" y="0px"
	 width="559.2px" height="408.1px" viewBox="0 0 559.2 408.1" style="enable-background:new 0 0 559.2 408.1;" xml:space="preserve"
	>
<style type="text/css">
	.st0{fill:#FFFFFF;}
</style>
<g transform="translate(950 1130)">
	<path class="st0" d="M-401.8-1130h-540.6l-7.6,7.7v387.6c-0.4,6.6,4.6,12.3,11.3,12.8c0.5,0,1,0,1.5,0h532.9
		c6.6,0.4,12.3-4.6,12.8-11.3c0-0.5,0-1,0-1.5v-382.5C-389-1124.9-394.1-1130-401.8-1130z M-488.5-1079l-181,145.3l-181-145.3
		H-488.5z M-440-773h-459v-278l229.5,183.6L-440-1051V-773z"/>
</g>
</svg>
