<?xml version="1.0" encoding="utf-8"?>
<!-- Generator: Adobe Illustrator 21.1.0, SVG Export Plug-In . SVG Version: 6.00 Build 0)  -->
<svg version="1.1" id="Layer_1" xmlns="http://www.w3.org/2000/svg" xmlns:xlink="http://www.w3.org/1999/xlink" x="0px" y="0px"
	 width="611.7px" height="476.8px" viewBox="0 0 611.7 476.8" style="enable-background:new 0 0 611.7 476.8;" xml:space="preserve"
	>
<style type="text/css">
	.st0{fill:#FFFFFF;}
</style>
<g transform="translate(950 1130)">
	<path class="st0" d="M-345.7-885.2l-107.1-109.7l-38.2,38.2l89.2,89.2l-89.2,89.2l35.7,35.7l107.1-106.9c10.4-7.2,13-21.5,5.8-31.9
		C-343.4-882.8-344.5-884.1-345.7-885.2L-345.7-885.2z M-835.3-994.9l-107.1,107.1c-9.9,9.4-10.2,25-0.8,34.9
		c0.3,0.3,0.6,0.6,0.8,0.8l107.1,112.2l38.2-38.2l-91.8-89.2l91.8-89.2L-835.3-994.9z M-751.1-671l165.8-459l48.5,17.8l-165.8,459
		L-751.1-671z"/>
</g>
</svg>
