<svg width="11" height="11" viewBox="0 0 11 11" fill="none" xmlns="http://www.w3.org/2000/svg" class="jw-svg-icon jw-svg-icon-floating-close" focusable="false"><path d="M7.41499 5.00001L10.705 1.70501C10.8688 1.51371 10.9544 1.26763 10.9447 1.01595C10.935 0.764278 10.8307 0.525539 10.6526 0.347444C10.4745 0.16935 10.2357 0.0650171 9.98405 0.055296C9.73237 0.0455748 9.48629 0.131181 9.29499 0.295007L5.99999 3.58501L2.70499 0.295007C2.51369 0.131181 2.26762 0.0455748 2.01594 0.055296C1.76426 0.0650171 1.52552 0.16935 1.34743 0.347444C1.16934 0.525539 1.065 0.764278 1.05528 1.01595C1.04556 1.26763 1.13117 1.51371 1.29499 1.70501L4.58499 5.00001L1.29499 8.29501C1.19031 8.38466 1.10529 8.49497 1.04527 8.61904C0.985244 8.7431 0.951515 8.87824 0.946195 9.01596C0.940876 9.15367 0.964081 9.29101 1.01436 9.41933C1.06463 9.54766 1.14089 9.6642 1.23834 9.76166C1.3358 9.85911 1.45235 9.93537 1.58067 9.98565C1.709 10.0359 1.84633 10.0591 1.98405 10.0538C2.12177 10.0485 2.2569 10.0148 2.38096 9.95473C2.50503 9.89471 2.61535 9.80969 2.70499 9.70501L5.99999 6.41501L9.29499 9.70501C9.48629 9.86884 9.73237 9.95444 9.98405 9.94472C10.2357 9.935 10.4745 9.83067 10.6526 9.65257C10.8307 9.47448 10.935 9.23574 10.9447 8.98406C10.9544 8.73239 10.8688 8.48631 10.705 8.29501L7.41499 5.00001Z" fill="white" fill-opacity="0.8"/></svg>