<?xml version="1.0" encoding="utf-8"?>
<!-- Generator: Adobe Illustrator 21.1.0, SVG Export Plug-In . SVG Version: 6.00 Build 0)  -->
<svg version="1.1" id="Layer_1" xmlns="http://www.w3.org/2000/svg" xmlns:xlink="http://www.w3.org/1999/xlink" x="0px" y="0px"
	 width="404.4px" height="404.4px" viewBox="0 0 404.4 404.4" style="enable-background:new 0 0 404.4 404.4;" xml:space="preserve"
	>
<style type="text/css">
	.st0{fill:#FFFFFF;}
</style>
<g transform="translate(192 1007)">
	<path class="st0" d="M-49.7-635.3c4.9,4.9,3.4,10-3.6,11.1l-127.9,21.3c-4.6,1.2-9.3-1.5-10.5-6.1c-0.4-1.4-0.4-3,0-4.4l21.3-127.9
		c1.1-6.9,6.1-8.5,11.1-3.6l36.7,36.7l71.2-71.2l36.1,36.1l-71.2,71.2L-49.7-635.3z M201.7-1006.7L73.8-985.4
		c-6.9,1.1-8.5,6.1-3.6,11.1l36.7,36.7l-71.2,71.2l36.1,36.1l71.2-71.2l36.7,36.7c4.9,4.9,10,3.4,11.1-3.6l21.3-127.9
		c1.2-4.6-1.5-9.2-6-10.5C204.7-1007.1,203.2-1007.1,201.7-1006.7L201.7-1006.7z"/>
</g>
</svg>
