<?xml version="1.0" encoding="utf-8"?>
<!-- Generator: Adobe Illustrator 21.1.0, SVG Export Plug-In . SVG Version: 6.00 Build 0)  -->
<svg version="1.1" id="fullscreenExitIcon" class="jw-svg-icon jw-icon-fullscreen" xmlns="http://www.w3.org/2000/svg" xmlns:xlink="http://www.w3.org/1999/xlink" x="0px" y="0px"
	 width="408px" height="408.1px" viewBox="0 0 408 408.1" style="enable-background:new 0 0 408 408.1;" xml:space="preserve">
<style type="text/css">
	.jw-icon-fullscreen{fill:#FFFFFF;}
</style>
<g transform="translate(980 1512)">
	<path d="M-803.6-1269.9l-21.3,127.9c-1.1,6.9-6.1,8.5-11.1,3.6l-36.7-36.7l-71.2,71.2L-980-1140l71.2-71.2l-36.7-36.7
		c-4.9-4.9-3.4-10,3.6-11.1l127.9-21.3c4.6-1.2,9.2,1.5,10.5,6C-803.2-1272.9-803.2-1271.4-803.6-1269.9L-803.6-1269.9z
		 M-643.2-1404.7l71.2-71.2l-36.1-36.1l-71.2,71.2l-36.7-36.7c-4.9-4.9-10-3.4-11.1,3.6l-21.3,127.9c-1.2,4.6,1.5,9.3,6.1,10.5
		c1.4,0.4,3,0.4,4.4,0l127.9-21.3c6.9-1.1,8.5-6.1,3.6-11.1L-643.2-1404.7z"/>
</g>
</svg>
