<?xml version="1.0" encoding="utf-8"?>
<!-- Generator: Adobe Illustrator 21.1.0, SVG Export Plug-In . SVG Version: 6.00 Build 0)  -->
<svg version="1.1" id="Layer_1" xmlns="http://www.w3.org/2000/svg" xmlns:xlink="http://www.w3.org/1999/xlink" x="0px" y="0px"
	 width="507.5px" height="509.1px" viewBox="0 0 507.5 509.1" style="enable-background:new 0 0 507.5 509.1;" xml:space="preserve"
	>
<style type="text/css">
	.st0{fill:#FFFFFF;}
</style>
<g transform="translate(950 1130)">
	<path class="st0" d="M-447.1-923.2h-244.8v99.5h142.8c-5.6,32.2-24,60.7-51,79c-17.5,10.2-36.4,18-56.1,23
		c-20.3,2.6-40.9,2.6-61.2,0c-21-4.7-40.9-13.4-58.7-25.5c-27.8-19.1-48.5-46.9-58.6-79c-10.2-32.4-10.2-67.1,0-99.5
		c7.8-23.1,20.9-44.1,38.3-61.2c39.6-40.8,98.9-55.6,153-38.2c21.3,6,40.6,17.4,56.1,33.2c15.3-15.3,33.1-30.6,48.5-45.9
		c9.1-7.8,17.7-16.4,25.5-25.5c-24.9-21.7-53.4-39-84.2-51c-56.8-20-118.6-20.9-176-2.5c-64.4,20.9-117.8,66.8-147.9,127.5
		c-38.2,71.7-38.2,157.8,0,229.5c17.3,33,41.7,61.7,71.4,84.1c27.5,22.3,59.8,38,94.4,45.9c43.4,11,88.8,11.9,132.6,2.6
		c39.7-8.4,76.6-26.8,107.1-53.5c31-29.3,53.9-66.2,66.3-107.1C-441.1-832.6-440.3-878.3-447.1-923.2z"/>
</g>
</svg>
