<svg xmlns="http://www.w3.org/2000/svg" class="jw-svg-icon jw-svg-icon-google" viewBox="0 0 240 240"><path d="M185.8,107.8h-62.7v25.5h36.6c-1.4,8.2-6.1,15.5-13.1,20.2c-4.5,2.6-9.3,4.6-14.4,5.9c-5.2,0.7-10.5,0.7-15.7,0c-5.4-1.2-10.5-3.4-15-6.5c-7.1-4.9-12.4-12-15-20.2c-2.6-8.3-2.6-17.2,0-25.5c2-5.9,5.4-11.3,9.8-15.7c10.1-10.5,25.3-14.2,39.2-9.8c5.5,1.5,10.4,4.5,14.4,8.5c3.9-3.9,8.5-7.8,12.4-11.8c2.3-2,4.5-4.2,6.5-6.5c-6.4-5.6-13.7-10-21.6-13.1c-14.5-5.1-30.4-5.4-45.1-0.6c-16.5,5.4-30.2,17.1-37.9,32.7c-9.8,18.4-9.8,40.4,0,58.8c4.4,8.5,10.7,15.8,18.3,21.5c7,5.7,15.3,9.7,24.2,11.8c11.1,2.8,22.7,3,34,0.7c10.2-2.2,19.6-6.9,27.4-13.7c7.9-7.5,13.8-17,17-27.4C187.4,131,187.6,119.3,185.8,107.8z"/></svg>