<svg xmlns="http://www.w3.org/2000/svg" class="jw-svg-icon jw-svg-icon-jwplayer-logo" viewBox="0 0 992 1024" focusable="false"><path d="M144 518.4c0 6.4-6.4 6.4-6.4 0l-3.2-12.8c0 0-6.4-19.2-12.8-38.4 0-6.4-6.4-12.8-9.6-22.4-6.4-6.4-16-9.6-28.8-6.4-9.6 3.2-16 12.8-16 22.4s0 16 0 25.6c3.2 25.6 22.4 121.6 32 140.8 9.6 22.4 35.2 32 54.4 22.4 22.4-9.6 28.8-35.2 38.4-54.4 9.6-25.6 60.8-166.4 60.8-166.4 6.4-12.8 9.6-12.8 9.6 0 0 0 0 140.8-3.2 204.8 0 25.6 0 67.2 9.6 89.6 6.4 16 12.8 28.8 25.6 38.4s28.8 12.8 44.8 12.8c6.4 0 16-3.2 22.4-6.4 9.6-6.4 16-12.8 25.6-22.4 16-19.2 28.8-44.8 38.4-64 25.6-51.2 89.6-201.6 89.6-201.6 6.4-12.8 9.6-12.8 9.6 0 0 0-9.6 256-9.6 355.2 0 25.6 6.4 48 12.8 70.4 9.6 22.4 22.4 38.4 44.8 48s48 9.6 70.4-3.2c16-9.6 28.8-25.6 38.4-38.4 12.8-22.4 25.6-48 32-70.4 19.2-51.2 35.2-102.4 51.2-153.6s153.6-540.8 163.2-582.4c0-6.4 0-9.6 0-12.8 0-9.6-6.4-19.2-16-22.4-16-6.4-32 0-38.4 12.8-6.4 16-195.2 470.4-195.2 470.4-6.4 12.8-9.6 12.8-9.6 0 0 0 0-156.8 0-288 0-70.4-35.2-108.8-83.2-118.4-22.4-3.2-44.8 0-67.2 12.8s-35.2 32-48 54.4c-16 28.8-105.6 297.6-105.6 297.6-6.4 12.8-9.6 12.8-9.6 0 0 0-3.2-115.2-6.4-144-3.2-41.6-12.8-108.8-67.2-115.2-51.2-3.2-73.6 57.6-86.4 99.2-9.6 25.6-51.2 163.2-51.2 163.2v3.2z"/></svg>
