<svg xmlns="http://www.w3.org/2000/svg" id="jw-svg-icon-jwplayer-logo" viewBox="0 0 240 240"><path d="M32.4,122.175c-1.038,3.736-2.414-2.179-2.707-3.226-.941-3.365-1.979-6.7-3.193-9.974-1.135-4.157-4.333-8.478-9.2-6.7-4.735,1.73-4.364,7.006-3.6,11.1.8,6,5.2,29.8,7.9,34.9s8.4,7.9,13.7,5c5-2.6,7.3-8.8,9.3-13.7,2.6-6.1,15.4-41.6,15.4-41.6,1.3-3.5,2.3-3.3,2.2.4,0,0-.6,34.7-.7,50.5,0,4.5.174,9.016.614,13.5.437,4.446,1.044,9.163,3.261,13.12a15.473,15.473,0,0,0,12.162,8.248c5.451.431,10.483-2.463,13.894-6.551,4.177-5.007,7.128-10.937,10.069-16.714,6.2-12.2,22.2-50,22.2-50,1.5-3.4,2.6-3.2,2.4.5,0,0-2,63.5-2,87.8-.04,13.571,6.459,32.2,23.121,31.4,15.127-.732,21.819-18.448,26.479-30.1,4.8-12.5,8.8-25.3,12.8-38.1s37.9-134,40-144.4c2.257-8.652-9.662-13.868-13.7-5.5-1.9,3.8-48.3,116.2-48.3,116.2-1.4,3.5-2.6,3.2-2.6-.5,0,0,.1-39.1.3-71.5.065-11.359-4.124-23.4-15.437-27.873C132.7,22.84,120.483,32.026,114,44.075c-3.7,7.1-26.4,73.5-26.4,73.5-1.2,3.5-2.3,3.4-2.3-.4,0,0-.7-28.5-1.3-35.3-1-10.3-3.3-27.3-16.7-28.1-12.5-.4-18.1,15-21.3,24.6-2.1,6.3-12.6,40.7-12.6,40.7Z"/></svg>
