<?xml version="1.0" encoding="utf-8"?>
<!-- Generator: Adobe Illustrator 21.1.0, SVG Export Plug-In . SVG Version: 6.00 Build 0)  -->
<svg version="1.1" id="Layer_1" xmlns="http://www.w3.org/2000/svg" xmlns:xlink="http://www.w3.org/1999/xlink" x="0px" y="0px"
	 width="507px" height="510px" viewBox="0 0 507 510" style="enable-background:new 0 0 507 510;" xml:space="preserve">
<style type="text/css">
	.st0{fill:#FFFFFF;}
</style>
<g transform="translate(950 1130)">
	<path class="st0" d="M-697.6-798.5h51v7.7c0.5,35.3-13.3,69.3-38.2,94.3l-38.2,38.2c-52.6,51-136.1,51-188.7,0
		c-51-52.6-51-136.1,0-188.7l35.7-40.8c25-25,59-38.7,94.4-38.2h7.6v51h-5.1c-22.4-0.8-44,8.5-58.7,25.5l-38.2,38.2
		c-32.4,31.3-33.2,83-1.9,115.4c0.6,0.6,1.3,1.3,1.9,1.9c31.3,32.4,83,33.2,115.4,1.9c0.6-0.6,1.3-1.3,1.9-1.9l38.2-38.2
		c16-15.4,25.2-36.5,25.5-58.6l0,0v-7.7L-697.6-798.5L-697.6-798.5z M-480.9-1091.8L-480.9-1091.8c-52.6-51-136.1-51-188.7,0
		l-40.8,38.2c-25,25-38.7,59-38.2,94.3v7.7h51v-7.7c-0.8-22.4,8.5-44,25.5-58.7l38.2-38.2c31.3-32.4,83-33.2,115.4-1.9
		c0.6,0.6,1.3,1.3,1.9,1.9c32.4,31.3,33.2,83,1.9,115.4c-0.6,0.6-1.3,1.3-1.9,1.9l-40.8,38.2c-15.4,16-36.5,25.2-58.6,25.5h-5.1v51
		h5.1c35.3,0.5,69.3-13.3,94.3-38.2l38.2-38.2C-430.4-952.8-429.3-1038-480.9-1091.8z M-761.4-773l165.8-165.8l-38.2-38.2
		l-165.8,165.8L-761.4-773z"/>
</g>
</svg>
