<?xml version="1.0" encoding="utf-8"?>
<!-- Generator: Adobe Illustrator 21.1.0, SVG Export Plug-In . SVG Version: 6.00 Build 0)  -->
<svg version="1.1" id="Layer_1" xmlns="http://www.w3.org/2000/svg" xmlns:xlink="http://www.w3.org/1999/xlink" x="0px" y="0px"
	 width="510px" height="509.9px" viewBox="0 0 510 509.9" style="enable-background:new 0 0 510 509.9;" xml:space="preserve">
<style type="text/css">
	.st0{fill:#FFFFFF;}
</style>
<g transform="translate(950 1130)">
	<path class="st0" d="M-478.3-1130h-433.5c-20.4-0.7-37.5,15.3-38.2,35.7v436c-0.4,20.7,16.1,37.9,36.9,38.2c0.5,0,0.9,0,1.4,0
		h433.5c20.4,0.7,37.5-15.3,38.2-35.7v-438.6C-440.8-1114.7-457.9-1130.7-478.3-1130z M-799.6-696.5h-74v-242.2h76.5v242.2H-799.6z
		 M-837.9-971.9c-23.7,0.2-43.1-18.9-43.4-42.6c0-0.3,0-0.5,0-0.8c0.7-23.6,19.7-42.7,43.4-43.3c23.6,0.7,42.7,19.7,43.3,43.3
		c1.1,22.9-16.6,42.3-39.5,43.3C-835.3-971.8-836.6-971.8-837.9-971.9z M-516.6-696.5h-76.5v-117.3c0-28.1,0-63.8-38.2-63.8
		s-45.9,30.6-45.9,63.8v117.3h-76.5v-242.2h71.4v33.2l0,0c14.7-25.1,42.3-39.9,71.4-38.2c76.5,0,91.8,51,91.8,114.8v132.6h2.5
		V-696.5z"/>
</g>
</svg>
