<svg xmlns="http://www.w3.org/2000/svg" class="jw-svg-icon jw-svg-icon-linkedin" viewBox="0 0 510 509.9"><path d="M471.7 0H38.2C17.8-.7.7 15.3 0 35.7v436c-.4 20.7 16.1 37.9 36.9 38.2h434.9c20.4.7 37.5-15.3 38.2-35.7V35.6C509.2 15.3 492.1-.7 471.7 0zM150.4 433.5h-74V191.3h76.5v242.2h-2.5zm-38.3-275.4c-23.7.2-43.1-18.9-43.4-42.6v-.8c.7-23.6 19.7-42.7 43.4-43.3 23.6.7 42.7 19.7 43.3 43.3 1.1 22.9-16.6 42.3-39.5 43.3-1.2.2-2.5.2-3.8.1zm321.3 275.4h-76.5V316.2c0-28.1 0-63.8-38.2-63.8s-45.9 30.6-45.9 63.8v117.3h-76.5V191.3h71.4v33.2c14.7-25.1 42.3-39.9 71.4-38.2 76.5 0 91.8 51 91.8 114.8v132.6h2.5v-.2z"/></svg>