<svg xmlns="http://www.w3.org/2000/svg" class="jw-svg-icon jw-svg-icon-live" viewBox="0 0 360 240"><path d="M354.777,40H5.048a5.013,5.013,0,0,0-5,5V194.9a5.013,5.013,0,0,0,5,5h349.73a5.013,5.013,0,0,0,5-5V45A4.95,4.95,0,0,0,354.777,40ZM80.011,139.9a20,20,0,1,1,19.99-20A19.99,19.99,0,0,1,80.011,139.9Zm99.352,10H145.879V88.7h10.795V140h22.689Zm20.99,0H189.158V88.7h11.195Zm40.081,0H227.439L210.847,88.7h11.195l11.994,45.2L246.23,88.7h11.394Zm56.073,0H264.821V88.7h30.085v9.9H275.516v15.6h16.292v9.4H275.516V140h20.89ZM355,40H5.051a5.016,5.016,0,0,0-5,5V195a5.016,5.016,0,0,0,5,5H355a5.016,5.016,0,0,0,5-5V45A4.953,4.953,0,0,0,355,40ZM80.061,139.962a20.013,20.013,0,1,1,20-20.013A20,20,0,0,1,80.061,139.962Zm99.414,10.006h-33.5V88.73h10.8v51.332h22.7Zm21,0h-11.2V88.73h11.2Zm40.106,0h-13l-16.6-61.238h11.2l12,45.228,12.2-45.228h11.4Zm56.108,0h-31.7V88.73h30.1v9.906h-19.4v15.61h16.3v9.406h-16.3v16.41h20.9ZM354.826,40H5a5.016,5.016,0,0,0-5,5V195a5.016,5.016,0,0,0,5,5H354.826a5.016,5.016,0,0,0,5-5V45A4.952,4.952,0,0,0,354.826,40ZM79.983,139.962a20.013,20.013,0,1,1,20-20.013A20,20,0,0,1,79.983,139.962Zm99.379,10.006H145.87V88.73h10.8v51.332h22.7Zm21,0h-11.2V88.73h11.2Zm40.092,0h-13l-16.6-61.238h11.2l12,45.228,12.2-45.228h11.4Zm56.088,0H264.845V88.73h30.094v9.906h-19.4v15.61h16.3v9.406h-16.3v16.41h20.9Z"/></svg>