<?xml version="1.0" encoding="utf-8"?>
<!-- Generator: Adobe Illustrator 21.1.0, SVG Export Plug-In . SVG Version: 6.00 Build 0)  -->
<svg version="1.1" id="liveIcon" class="jw-svg-icon jw-icon-live" xmlns="http://www.w3.org/2000/svg" xmlns:xlink="http://www.w3.org/1999/xlink" x="0px" y="0px"
	 width="579.9px" height="257.8px" viewBox="0 0 579.9 257.8" style="enable-background:new 0 0 579.9 257.8;" xml:space="preserve"
	>
<style type="text/css">
	.jw-icon-live{fill:#FFFFFF;}
</style>
<g transform="translate(980 1556)">
	<path class="st0" d="M-408.2-1556h-563.7c-4.4,0-8.1,3.6-8.1,8.1v241.6c0,4.4,3.6,8.1,8.1,8.1h563.7c4.4,0,8.1-3.6,8.1-8.1v-241.6
		C-400.1-1552.4-403.7-1556-408.2-1556z M-851.1-1395c-17.8,0-32.2-14.4-32.2-32.2c0-17.8,14.4-32.2,32.2-32.2s32.2,14.4,32.2,32.2
		C-818.9-1409.4-833.3-1395-851.1-1395z M-691-1378.9h-54v-98.6h17.4v82.6h36.5L-691-1378.9z M-657.1-1378.9h-18v-98.6h18V-1378.9z
		 M-592.5-1378.9h-20.9l-26.7-98.6h18l19.3,72.9l19.6-72.9h18.3L-592.5-1378.9z M-502.1-1378.9h-51v-98.6h48.5v15.9h-31.2v25.1h26.2
		v15.2h-26.2v26.4h33.6L-502.1-1378.9z"/>
</g>
</svg>
