<?xml version="1.0" encoding="utf-8"?>
<!-- Generator: Adobe Illustrator 21.1.0, SVG Export Plug-In . SVG Version: 6.00 Build 0)  -->
<svg version="1.1" id="pauseIcon" class="jw-icon-pause" xmlns="http://www.w3.org/2000/svg" xmlns:xlink="http://www.w3.org/1999/xlink" x="0px" y="0px"
	 width="306.1px" height="408.2px" viewBox="0 0 306.1 408.2" style="enable-background:new 0 0 306.1 408.2;" xml:space="preserve"
	>
<style type="text/css">
	.jw-icon-pause{fill:#FFFFFF;}
</style>
<g transform="translate(887 1622)">
	<path d="M-784.9-1226.7c0.4,6.6-4.6,12.3-11.3,12.8c-0.5,0-1,0-1.5,0h-76.5c-6.6,0.4-12.3-4.6-12.8-11.3
		c0-0.5,0-1,0-1.5v-382.5c-0.4-6.6,4.6-12.3,11.3-12.8c0.5,0,1,0,1.5,0h76.5c6.6-0.4,12.3,4.6,12.8,11.3c0,0.5,0,1,0,1.5V-1226.7z
		 M-580.9-1609.1c0.4-6.6-4.6-12.3-11.3-12.8c-0.5,0-1,0-1.5,0h-76.5c-6.6-0.4-12.3,4.6-12.8,11.3c0,0.5,0,1,0,1.5v382.5
		c-0.4,6.6,4.6,12.3,11.3,12.8c0.5,0,1,0,1.5,0h76.5c6.6,0.4,12.3-4.6,12.8-11.3c0-0.5,0-1,0-1.5V-1609.1z"/>
</g>
</svg>
