<svg xmlns="http://www.w3.org/2000/svg" class="jw-svg-icon jw-svg-icon-pinterest" viewBox="0 0 240 240"><path d="M120,55c-35.9,0.1-64.9,29.1-65,65c0.2,25.8,15.4,49.2,39,59.8c-0.2-5,0.3-10,1.3-14.9c1.3-5.2,8.5-35.1,8.5-35.1c-1.4-3.3-2-6.8-2-10.4c0-9.7,5.9-16.9,12.4-16.9c5.9,0,8.5,4.5,8.5,9.7c-1.3,7.7-3.2,15.3-5.9,22.7c-1.5,5.1,1.4,10.5,6.6,12c1.2,0.4,2.5,0.5,3.8,0.3c12.4,0,20.8-15.6,20.8-34.4c0-14.3-9.7-24.7-27.3-24.7c-17.1-0.5-31.3,12.9-31.8,30c0,0.4,0,0.8,0,1.2c-0.1,4.7,1.5,9.4,4.5,13c1,0.8,1.2,2.1,0.6,3.3c0,1.3-1.3,3.9-1.3,5.2c-0.6,2-2,2-3.3,2c-9.1-3.9-13-13.6-13-24.7c0-18.2,15.6-40.3,46.1-40.3c21.4-1.2,39.8,15.2,40.9,36.7c0,0.1,0,0.3,0,0.4c0,25.4-14.3,44.9-35.1,44.9c-6.2,0.2-12.1-2.7-15.6-7.8c0,0-3.9,14.9-4.5,17.6c-1.4,4.9-3.6,9.5-6.5,13.7c6,1.3,12.1,2,18.2,1.9c35.9,0,65-29.1,65-65C185,84.1,155.9,55,120,55z"/></svg>