<?xml version="1.0" encoding="utf-8"?>
<!-- Generator: Adobe Illustrator 21.1.0, SVG Export Plug-In . SVG Version: 6.00 Build 0)  -->
<svg version="1.1" id="Layer_1" xmlns="http://www.w3.org/2000/svg" xmlns:xlink="http://www.w3.org/1999/xlink" x="0px" y="0px"
	 width="510px" height="510.3px" viewBox="0 0 510 510.3" style="enable-background:new 0 0 510 510.3;" xml:space="preserve">
<style type="text/css">
	.st0{fill:#FFFFFF;}
</style>
<g transform="translate(950 1130)">
	<path class="st0" d="M-695-1130c-140.7,0.4-254.6,114.3-255,255c0.7,101.4,60.5,193.1,153,234.6c-0.7-19.7,1-39.4,5.1-58.6
		c5.1-20.4,33.2-137.7,33.2-137.7c-5.4-12.9-8-26.8-7.7-40.8c0-38.2,23-66.3,48.5-66.3c23,0,33.2,17.8,33.2,38.2
		c-5,30.4-12.6,60.2-23,89.2c-5.9,20.1,5.6,41.2,25.7,47.2c4.9,1.4,10,1.9,15.1,1.3c48.5,0,81.6-61.2,81.6-135.1
		c0-56.1-38.2-96.9-107.1-96.9c-67-2-122.9,50.7-124.9,117.8c0,1.5-0.1,3.1,0,4.6c-0.4,18.6,5.9,36.7,17.8,51
		c3.8,3.1,4.9,8.4,2.5,12.8c0,5.1-5.1,15.3-5.1,20.4c-2.5,7.7-7.7,7.7-12.8,7.7c-35.7-15.3-51-53.5-51-96.9
		c0-71.4,61.2-158.1,181-158.1c84.1-4.6,156,59.8,160.6,143.9c0,0.5,0.1,1,0.1,1.5c0,99.5-56.1,176-137.7,176
		c-24.3,0.8-47.3-10.7-61.2-30.6c0,0-15.3,58.6-17.8,68.9c-5.4,19.2-14,37.3-25.5,53.6c23.4,5.2,47.4,7.8,71.4,7.6
		c140.8,0,255-114.2,255-255S-554.2-1130-695-1130z"/>
</g>
</svg>
