<svg class="jw-svg-icon jw-svg-icon-pip-on"  width="24" height="24" viewBox="0 0 24 24" xmlns="http://www.w3.org/2000/svg">
<path fill-rule="evenodd" clip-rule="evenodd" d="M20 5.125V9.125H22V4.155C22 3.58616 21.5389 3.125 20.97 3.125H2.03C1.46116 3.125 1 3.58613 1 4.155V17.095C1 17.6639 1.46119 18.125 2.03 18.125H12V16.125H3V5.125H20ZM14 11.875C14 11.3227 14.4477 10.875 15 10.875H22C22.5523 10.875 23 11.3227 23 11.875V17.875C23 18.4273 22.5523 18.875 22 18.875H15C14.4477 18.875 14 18.4273 14 17.875V11.875ZM6 12.375L7.79289 10.5821L5.29288 8.0821L6.7071 6.66788L9.20711 9.16789L11 7.375V12.375H6Z"/>
</svg>
