<svg class="jw-svg-icon jw-svg-icon-pip-off" width="24" height="24" viewBox="0 0 24 24" xmlns="http://www.w3.org/2000/svg">
<path fill-rule="evenodd" clip-rule="evenodd" d="M20 5.75V9.75H22V4.78C22 4.21116 21.5389 3.75 20.97 3.75H2.03C1.46116 3.75 1 4.21113 1 4.78V17.72C1 18.2889 1.46119 18.75 2.03 18.75H12V16.75H3V5.75H20ZM14 13.25C14 12.6977 14.4477 12.25 15 12.25H22C22.5523 12.25 23 12.6977 23 13.25V19.25C23 19.8023 22.5523 20.25 22 20.25H15C14.4477 20.25 14 19.8023 14 19.25V13.25ZM10 9.25L8.20711 11.0429L10.7071 13.5429L9.29289 14.9571L6.79289 12.4571L5 14.25V9.25H10Z"/>
</svg>
