<svg width="240" height="240" viewBox="0 0 44 44" fill="none" xmlns="http://www.w3.org/2000/svg"><path fill-rule="evenodd" clip-rule="evenodd" d="M30 15.125V19.125H32V14.155C32 13.5862 31.5389 13.125 30.97 13.125H12.03C11.4612 13.125 11 13.5861 11 14.155V27.095C11 27.6639 11.4612 28.125 12.03 28.125H22V26.125H13V15.125H30ZM24 21.875C24 21.3227 24.4477 20.875 25 20.875H32C32.5523 20.875 33 21.3227 33 21.875V27.875C33 28.4273 32.5523 28.875 32 28.875H25C24.4477 28.875 24 28.4273 24 27.875V21.875ZM16 22.375L17.7929 20.5821L15.2929 18.0821L16.7071 16.6679L19.2071 19.1679L21 17.375V22.375H16Z" fill="white"/></svg>
