<?xml version="1.0" encoding="utf-8"?>
<!-- Generator: Adobe Illustrator 21.1.0, SVG Export Plug-In . SVG Version: 6.00 Build 0)  -->
<svg version="1.1" id="Layer_1" xmlns="http://www.w3.org/2000/svg" xmlns:xlink="http://www.w3.org/1999/xlink" x="0px" y="0px"
	 width="459px" height="408px" viewBox="0 0 459 408" style="enable-background:new 0 0 459 408;" xml:space="preserve">
<style type="text/css">
	.st0{fill:#FFFFFF;}
</style>
<path class="st0" d="M446.3,102H12.7c-7,0-12.8,5.7-12.8,12.8v280.5c0,7,5.7,12.8,12.8,12.8h433.5c7,0,12.8-5.7,12.8-12.8V114.8
	C459,107.7,453.3,102,446.3,102z M295.1,261.6L189.5,325c-6,3.6-10.9,0.8-10.9-6.2V191.2c0-7,4.9-9.8,10.9-6.2l105.6,63.4
	c3.6,1.4,5.4,5.4,4.1,9C298.4,259.4,296.9,260.8,295.1,261.6z M408,76.5H51V51h357V76.5z M357,25.5H102V0h255V25.5z"/>
</svg>
