<svg class="jw-svg-icon jw-svg-icon-quality-75" xmlns="http://www.w3.org/2000/svg" viewBox="0 0 240 240" focusable="false"><path opacity="0.2" d="M205,200h-20c-3,0-5-2-5-4c0,0,0,0,0-1V45c0-3,2-5,4-5c0,0,0,0,1,0h20c3,0,5,2,5,4c0,0,0,0,0,1v150C210,198,208,200,205,200L205,200z"/><path d="M55,200H35c-3,0-5-2-5-4c0,0,0,0,0-1v-30c0-3,2-5,4-5c0,0,0,0,1,0h20c3,0,5,2,5,4c0,0,0,0,0,1v30C60,198,58,200,55,200L55,200z M210,195v-10c0-3-2-5-4-5c0,0,0,0-1,0h-20c-3,0-5,2-5,4c0,0,0,0,0,1v10c0,3,2,5,4,5c0,0,0,0,1,0h20C208,200,210,198,210,195L210,195z M110,195v-70c0-3-2-5-4-5c0,0,0,0-1,0H85c-3,0-5,2-5,4c0,0,0,0,0,1v70c0,3,2,5,4,5c0,0,0,0,1,0h20C108,200,110,198,110,195L110,195z M160,195V85c0-3-2-5-4-5c0,0,0,0-1,0h-20c-3,0-5,2-5,4c0,0,0,0,0,1v110c0,3,2,5,4,5c0,0,0,0,1,0h20C158,200,160,198,160,195L160,195z"/></svg>