<?xml version="1.0" encoding="utf-8"?>
<!-- Generator: Adobe Illustrator 21.1.0, SVG Export Plug-In . SVG Version: 6.00 Build 0)  -->
<svg version="1.1" id="Layer_1" xmlns="http://www.w3.org/2000/svg" xmlns:xlink="http://www.w3.org/1999/xlink" x="0px" y="0px"
	 width="256px" height="227.6px" viewBox="0 0 256 227.6" style="enable-background:new 0 0 256 227.6;" xml:space="preserve">
<style type="text/css">
	.st0{fill:#FFFFFF;}
</style>
<path class="st0" d="M35.6,227.6H7.1c-4.3,0-7.1-2.8-7.1-5.7c0,0,0,0,0-1.4v-42.7c0-4.3,2.8-7.1,5.7-7.1c0,0,0,0,1.4,0h28.4
	c4.3,0,7.1,2.8,7.1,5.7c0,0,0,0,0,1.4v42.7C42.7,224.7,39.8,227.6,35.6,227.6L35.6,227.6z M113.8,220.4v-99.6c0-4.3-2.8-7.1-5.7-7.1
	c0,0,0,0-1.4,0H78.2c-4.3,0-7.1,2.8-7.1,5.7c0,0,0,0,0,1.4v99.6c0,4.3,2.8,7.1,5.7,7.1c0,0,0,0,1.4,0h28.4
	C110.9,227.6,113.8,224.7,113.8,220.4L113.8,220.4z M184.9,220.4V64c0-4.3-2.8-7.1-5.7-7.1c0,0,0,0-1.4,0h-28.4
	c-4.3,0-7.1,2.8-7.1,5.7c0,0,0,0,0,1.4v156.4c0,4.3,2.8,7.1,5.7,7.1c0,0,0,0,1.4,0h28.4C182,227.6,184.9,224.7,184.9,220.4
	L184.9,220.4z M256,220.4V7.1c0-4.3-2.8-7.1-5.7-7.1c0,0,0,0-1.4,0h-28.4c-4.3,0-7.1,2.8-7.1,5.7c0,0,0,0,0,1.4v213.3
	c0,4.3,2.8,7.1,5.7,7.1c0,0,0,0,1.4,0h28.4C253.2,227.6,256,224.7,256,220.4L256,220.4z"/>
</svg>
