<svg class="jw-svg-icon jw-svg-icon-reddit" xmlns="http://www.w3.org/2000/svg" viewBox="0 0 240 240"><path d="M176.7,100.7c-4.2,0-8.3,1.4-11.6,4.1c-12.2-7.2-25.9-11.1-40-11.5l8.1-25.1l21.1,4.7c0.7,7.7,7.2,13.7,14.9,13.6c8.3,0,14.9-6.7,14.9-14.9c0-8.3-6.7-14.9-14.9-14.9c-5.7,0-10.9,3.1-13.6,8.1l-25.1-6.1c-2-0.6-4.2,0.6-4.7,2.7l0,0L117,92.6c-15,0.3-29.6,4.3-42.8,11.5c-3.1-2.4-6.9-3.9-10.9-4.1c-9.9,0.4-17.9,8.4-18.3,18.3c0.2,5.8,2.9,11.3,7.5,14.9v4.1c0.8,13.4,8.5,25.5,20.4,31.9c14.1,8.5,30.4,12.7,46.8,12.2c16.4,0.1,32.5-4.1,46.8-12.2c11.9-6.4,19.6-18.4,20.4-31.9v-4.1c5-3.4,8-8.9,8.1-14.9C194.3,108.6,186.4,101,176.7,100.7z M169.2,65.4c3.5-0.2,6.6,2.5,6.8,6c0,0.3,0,0.5,0,0.8c0,3.8-3,6.8-6.8,6.8c-3.5,0.2-6.6-2.5-6.8-6c0-0.3,0-0.5,0-0.8C162.7,68.5,165.6,65.6,169.2,65.4z M87.1,129.2c0-5.6,4.6-10.2,10.2-10.2s10.2,4.6,10.2,10.2c0,5.6-4.6,10.2-10.2,10.2C91.7,139.2,87.2,134.7,87.1,129.2z M144.1,159c-6.8,5.8-15.6,8.5-24.4,7.5l0,0c-8.8,0.7-17.5-2-24.4-7.5c-1.5-1.4-1.6-3.9-0.2-5.4s3.9-1.6,5.4-0.2c0.1,0.1,0.1,0.1,0.2,0.2c5.4,4.2,12.2,6.1,19,5.4l0,0c6.8,0.5,13.5-1.4,19-5.4c1.5-1.4,3.9-1.4,5.4,0C146.1,154.9,146.1,157,144.1,159L144.1,159z M142.1,139.3c-5.6,0-10.2-4.6-10.2-10.2c0-5.6,4.6-10.2,10.2-10.2c5.6,0,10.2,4.6,10.2,10.2C152.1,134.7,147.6,139.2,142.1,139.3L142.1,139.3z"/></svg>