<?xml version="1.0" encoding="utf-8"?>
<!-- Generator: Adobe Illustrator 21.1.0, SVG Export Plug-In . SVG Version: 6.00 Build 0)  -->
<svg version="1.1" id="Layer_1" xmlns="http://www.w3.org/2000/svg" xmlns:xlink="http://www.w3.org/1999/xlink" x="0px" y="0px"
	 width="563.6px" height="469.3px" viewBox="0 0 563.6 469.3" style="enable-background:new 0 0 563.6 469.3;" xml:space="preserve"
	>
<style type="text/css">
	.st0{fill:#FFFFFF;}
</style>
<g transform="translate(950 1130)">
	<path class="st0" d="M-455.3-964.3c-15.8,0-31.1,5.4-43.4,15.3c-45.7-26.9-97.5-41.8-150.4-43.3l30.6-94.3l79.1,17.8
		c2.5,29.1,26.9,51.3,56.1,51c31,0,56.1-25.1,56.1-56.1s-25.1-56.1-56.1-56.1c-21.3,0-40.9,11.8-51,30.6l-94.4-22.9
		c-7.7-2.1-15.7,2.4-17.8,10.1c0,0,0,0,0,0.1l-33.1,117.3c-56.3,1.3-111.4,16.1-160.7,43.3c-11.7-9.2-25.9-14.5-40.8-15.3
		c-37.3,1.6-67.2,31.5-68.9,68.8c0.7,21.9,11,42.4,28,56.1v15.3c3,50.5,31.9,95.9,76.5,119.8c53,31.8,114.1,47.8,176,45.9
		c61.6,0.3,122.3-15.5,176-45.9c44.6-24,73.5-69.3,76.5-119.9V-842c18.6-12.7,30-33.6,30.6-56.1C-389.1-934.4-418.8-963-455.3-964.3
		z M-483.3-1096.9c13.3-0.8,24.7,9.3,25.5,22.6c0.1,1,0.1,1.9,0,2.9c0,14.1-11.4,25.5-25.5,25.5c-13.3,0.8-24.7-9.3-25.5-22.6
		c-0.1-1-0.1-1.9,0-2.9C-507.9-1085.1-497-1096-483.3-1096.9z M-791.9-857.2c0-21.1,17.1-38.2,38.2-38.2c21.1,0,38.2,17.1,38.2,38.2
		c0,21.1-17.1,38.2-38.2,38.2C-774.5-819.5-791.4-836.3-791.9-857.2z M-577.7-745c-25.4,21.7-58.6,31.8-91.8,28l0,0
		c-33,2.5-65.8-7.5-91.8-28c-5.8-5.4-6.1-14.6-0.7-20.4c5.4-5.8,14.6-6.1,20.4-0.7c0.2,0.2,0.5,0.4,0.7,0.7
		c20.3,15.8,45.9,23.1,71.4,20.4l0,0c25.5,1.8,50.7-5.4,71.4-20.4c5.8-5.1,14.6-5.1,20.4,0C-570-760.3-570-752.7-577.7-745
		L-577.7-745z M-585.3-819c-21.1,0-38.2-17.1-38.2-38.2s17.1-38.2,38.2-38.2c21.1,0,38.2,17.1,38.2,38.2
		C-547.6-836.3-564.4-819.5-585.3-819L-585.3-819z"/>
</g>
</svg>
