<?xml version="1.0" encoding="utf-8"?>
<!-- Generator: Adobe Illustrator 21.1.0, SVG Export Plug-In . SVG Version: 6.00 Build 0)  -->
<svg version="1.1" id="Layer_1" xmlns="http://www.w3.org/2000/svg" xmlns:xlink="http://www.w3.org/1999/xlink" x="0px" y="0px"
	 width="497.6px" height="423.2px" viewBox="0 0 497.6 423.2" style="enable-background:new 0 0 497.6 423.2;" xml:space="preserve"
	>
<style type="text/css">
	.st0{fill:#FFFFFF;}
</style>
<g transform="translate(912 1447)">
	<path class="st0" d="M-681.2-1174.4c-9.8-16.7-27.4-27.3-46.7-28c-19.3,0.8-36.9,11.3-46.7,28c-22.8,37.6-22.8,84.8,0,122.4
		c9.8,16.7,27.4,27.3,46.7,28c19.3-0.8,37-11.3,46.7-28C-658.5-1089.6-658.5-1136.7-681.2-1174.4L-681.2-1174.4z M-727.9-1049.4
		c-20.7,0-38.2-29.2-38.2-63.8s17.5-63.8,38.2-63.8s38.2,29.2,38.2,63.8S-707.2-1049.4-727.9-1049.4z M-842.7-1023.9v-135
		l-12.8,12.8l-18-18l34.5-34.5c5-5,13.1-4.9,18,0.1c2.4,2.4,3.7,5.6,3.7,8.9v165.8L-842.7-1023.9L-842.7-1023.9z M-414.4-1368.2
		v331.5c0,7-5.7,12.8-12.8,12.8h-165.7v-51h127.5v-255h-306v51c0,14-9.5,19.1-21.2,11.3l-110.6-73.7c-7.8-3.9-11-13.4-7.1-21.2
		c1.5-3.1,4-5.5,7.1-7.1l110.6-73.7c11.7-7.8,21.2-2.7,21.2,11.3v51h344.2C-420.1-1380.9-414.4-1375.2-414.4-1368.2z"/>
</g>
</svg>
