<?xml version="1.0" encoding="utf-8"?>
<!-- Generator: Adobe Illustrator 21.1.0, SVG Export Plug-In . SVG Version: 6.00 Build 0)  -->
<svg version="1.1" id="Layer_1" xmlns="http://www.w3.org/2000/svg" xmlns:xlink="http://www.w3.org/1999/xlink" x="0px" y="0px"
	 width="441px" height="459.2px" viewBox="0 0 441 459.2" style="enable-background:new 0 0 441 459.2;" xml:space="preserve">
<style type="text/css">
	.st0{fill:#FFFFFF;}
</style>
<g transform="translate(202 1500)">
	<path class="st0" d="M232.7-1206.7l-63.7-35.7c2.1-9.2,3-18.6,2.6-28.1c0.4-9.4-0.4-18.9-2.6-28.1l63.7-35.7
		c5.7-4,7.9-11.4,5.1-17.8l-40.8-66.3c-3.1-5.3-9.6-7.5-15.3-5.1l-63.7,35.7c-15.2-10.8-31.5-20.2-48.4-28v-71.4
		c0.4-6.6-4.6-12.3-11.3-12.8c-0.5,0-1,0-1.5,0h-76.5c-6.6-0.4-12.3,4.6-12.8,11.3c0,0.5,0,1,0,1.5v71.4c-17,7.8-33.2,17.2-48.4,28
		l-63.8-35.7c-5.7-2.4-12.2-0.2-15.3,5.1l-38.2,66.3c-4.2,5.5-3.2,13.4,2.3,17.7c0.1,0.1,0.2,0.1,0.2,0.2l63.8,35.7
		c-2.1,9.2-3,18.6-2.5,28.1c-0.4,9.4,0.4,18.9,2.5,28.1l-63.8,35.7c-5.7,4-7.9,11.4-5.1,17.8l40.8,66.3c3.1,5.3,9.6,7.5,15.3,5.1
		l63.8-35.7c14.6,11.8,31,21.2,48.4,28.1v71.4c-0.4,6.6,4.6,12.3,11.3,12.8c0.5,0,1,0,1.5,0h76.5c6.6,0.4,12.3-4.6,12.8-11.3
		c0-0.5,0-1,0-1.5v-71.4c17.9-5.8,34.5-15.4,48.4-28.1l63.7,35.7c6.4,3.3,14.2,1.1,17.9-5.1l38.2-66.3
		C239.8-1195.3,237.8-1202.3,232.7-1206.7z M18.5-1194c-42.2,0-76.5-34.3-76.5-76.5s34.3-76.5,76.5-76.5s76.5,34.3,76.5,76.5
		c0.8,41.5-32.2,75.7-73.7,76.5C20.4-1194,19.4-1194,18.5-1194z"/>
</g>
</svg>
