<svg class="jw-svg-icon jw-svg-icon-settings" xmlns="http://www.w3.org/2000/svg" viewBox="0 0 240 240" focusable="false"><path d="M204,145l-25-14c0.8-3.6,1.2-7.3,1-11c0.2-3.7-0.2-7.4-1-11l25-14c2.2-1.6,3.1-4.5,2-7l-16-26c-1.2-2.1-3.8-2.9-6-2l-25,14c-6-4.2-12.3-7.9-19-11V35c0.2-2.6-1.8-4.8-4.4-5c-0.2,0-0.4,0-0.6,0h-30c-2.6-0.2-4.8,1.8-5,4.4c0,0.2,0,0.4,0,0.6v28c-6.7,3.1-13,6.7-19,11L56,60c-2.2-0.9-4.8-0.1-6,2L35,88c-1.6,2.2-1.3,5.3,0.9,6.9c0,0,0.1,0,0.1,0.1l25,14c-0.8,3.6-1.2,7.3-1,11c-0.2,3.7,0.2,7.4,1,11l-25,14c-2.2,1.6-3.1,4.5-2,7l16,26c1.2,2.1,3.8,2.9,6,2l25-14c5.7,4.6,12.2,8.3,19,11v28c-0.2,2.6,1.8,4.8,4.4,5c0.2,0,0.4,0,0.6,0h30c2.6,0.2,4.8-1.8,5-4.4c0-0.2,0-0.4,0-0.6v-28c7-2.3,13.5-6,19-11l25,14c2.5,1.3,5.6,0.4,7-2l15-26C206.7,149.4,206,146.7,204,145z M120,149.9c-16.5,0-30-13.4-30-30s13.4-30,30-30s30,13.4,30,30c0.3,16.3-12.6,29.7-28.9,30C120.7,149.9,120.4,149.9,120,149.9z"/></svg>