<svg xmlns="http://www.w3.org/2000/svg" id="jw-icons" style="display:none" focusable="false"><defs><symbol id="jw-svg-icon-airplay-off" viewBox="0 0 240 240"><path d="M210 55v100h-50l20 20h45c3 0 5-2 5-4 0 0 0 0 0-1V40c0-3-2-5-4-5 0 0 0 0-1 0H15c-3 0-5 2-5 4 0 0 0 0 0 1v130c0 3 2 5 4 5 0 0 0 0 1 0h45l20-20H30V55H210M60 205l60-70 60 70H60L60 205z"/></symbol><symbol id="jw-svg-icon-airplay-on" viewBox="0 0 240 240"><path d="M230 40v130c0 3-2 5-4 5 0 0 0 0-1 0h-44l-17-20h46V55H30v100h47l-17 20h-45c-3 0-5-2-5-4 0 0 0 0 0-1V40c0-3 2-5 4-5 0 0 0 0 1 0h210c3 0 5 2 5 4C230 40 230 40 230 40zM105 122l15-18 15 18 11 13h44V75H50v60h44L105 122zM180 205l-60-70 -60 70H180z"/></symbol><symbol id="jw-svg-icon-audio-tracks" viewBox="0 0 240 240"><path d="M35 34h160v20H35V34zM35 94h160V74H35V94zM35 134h60v-20H35V134zM160 114c-23-1-44 17-45 40v50h20c5 0 10-4 10-9 0 0 0-1 0-1v-20c0-5-4-10-9-10 0 0-1 0-1 0h-10v-10c2-18 17-31 35-30 18-1 34 12 35 30v10H185c-5 0-10 4-10 9 0 0 0 1 0 1v20c0 5 4 10 9 10 0 0 1 0 1 0h20v-50C204 131 183 113 160 114z"/></symbol><symbol id="jw-svg-icon-buffer" viewBox="0 0 240 240"><path d="M120,186.667a66.667,66.667,0,0,1,0-133.333V40a80,80,0,1,0,80,80H186.667A66.846,66.846,0,0,1,120,186.667Z"/></symbol><symbol id="jw-svg-icon-cc-off" viewBox="0 0 240 240"><path d="M99.4,97.8c-2.4-0.2-4.8,0.7-6.6,2.3c-1.7,1.7-2.5,4.1-2.4,6.5v25.6c0,9.6,11.6,11.4,17.7,5.5c0.7-0.7,1.5-1.5,2.4-2.3l6.6,7.8c-2.2,2.4-5,4.4-8,5.8c-8,3.5-17.3,2.4-24.3-2.9c-3.9-3.6-5.9-8.7-5.5-14v-25.6c0-2.7,0.5-5.3,1.5-7.8c0.9-2.2,2.4-4.3,4.2-5.9c5.7-4.5,13.2-6.2,20.3-4.6c3.3,0.5,6.3,2,8.7,4.3c1.3,1.3,2.5,2.6,3.5,4.2l-7.1,6.9C107.9,100,103.8,97.8,99.4,97.8z M144.1,97.8c-2.4-0.2-4.8,0.7-6.6,2.3c-1.7,1.7-2.5,4.1-2.4,6.5v25.6c0,9.6,11.6,11.4,17.7,5.5c0.7-0.7,1.5-1.5,2.4-2.3l6.6,7.8c-2.2,2.4-5,4.4-8,5.8c-8,3.5-17.3,2.4-24.3-2.9c-3.9-3.6-5.9-8.7-5.5-14v-25.6c0-2.7,0.5-5.3,1.5-7.8c0.9-2.2,2.4-4.3,4.2-5.9c5.7-4.5,13.2-6.2,20.3-4.6c3.3,0.5,6.3,2,8.7,4.3c1.3,1.3,2.5,2.6,3.5,4.2l-7.1,6.9C152.6,100,148.5,97.8,144.1,97.8L144.1,97.8z M200,60v120H40V60H200 M215,40H25c-2.7,0-5,2.2-5,5v150c0,2.7,2.2,5,5,5h190c2.7,0,5-2.2,5-5V45C220,42.2,217.8,40,215,40z"/></symbol><symbol id="jw-svg-icon-cc-on" viewBox="0 0 240 240"><path d="M215,40H25c-2.7,0-5,2.2-5,5v150c0,2.7,2.2,5,5,5h190c2.7,0,5-2.2,5-5V45C220,42.2,217.8,40,215,40z M108.1,137.7c0.7-0.7,1.5-1.5,2.4-2.3l6.6,7.8c-2.2,2.4-5,4.4-8,5.8c-8,3.5-17.3,2.4-24.3-2.9c-3.9-3.6-5.9-8.7-5.5-14v-25.6c0-2.7,0.5-5.3,1.5-7.8c0.9-2.2,2.4-4.3,4.2-5.9c5.7-4.5,13.2-6.2,20.3-4.6c3.3,0.5,6.3,2,8.7,4.3c1.3,1.3,2.5,2.6,3.5,4.2l-7.1,6.9c-2.4-3.7-6.5-5.9-10.9-5.9c-2.4-0.2-4.8,0.7-6.6,2.3c-1.7,1.7-2.5,4.1-2.4,6.5v25.6C90.4,141.7,102,143.5,108.1,137.7z M152.9,137.7c0.7-0.7,1.5-1.5,2.4-2.3l6.6,7.8c-2.2,2.4-5,4.4-8,5.8c-8,3.5-17.3,2.4-24.3-2.9c-3.9-3.6-5.9-8.7-5.5-14v-25.6c0-2.7,0.5-5.3,1.5-7.8c0.9-2.2,2.4-4.3,4.2-5.9c5.7-4.5,13.2-6.2,20.3-4.6c3.3,0.5,6.3,2,8.7,4.3c1.3,1.3,2.5,2.6,3.5,4.2l-7.1,6.9c-2.4-3.7-6.5-5.9-10.9-5.9c-2.4-0.2-4.8,0.7-6.6,2.3c-1.7,1.7-2.5,4.1-2.4,6.5v25.6C135.2,141.7,146.8,143.5,152.9,137.7z"/></symbol><symbol id="jw-svg-icon-close" viewBox="0 0 240 240"><path d="M135 120l49-49c2-2 2-5 0-7 0 0 0 0 0 0l-7-7c-2-2-5-2-7 0 0 0 0 0 0 0L120 105 71 57c-2-2-5-2-7 0 0 0 0 0 0 0L57 64c-2 2-2 5 0 7 0 0 0 0 0 0l49 49 -49 49c-2 2-2 5 0 7 0 0 0 0 0 0l7 7c2 2 5 2 7 0 0 0 0 0 0 0l49-49 49 49c2 2 5 2 7 0 0 0 0 0 0 0l7-7c2-2 2-5 0-7 0 0 0 0 0 0L135 120z"/></symbol><symbol id="jw-svg-icon-error" viewBox="0 0 36 36" style="width:100%;height:100%;"><path d="M34.6 20.2L10 33.2 27.6 16l7 3.7a.4.4 0 0 1 .2.5.4.4 0 0 1-.2.2zM33.3 0L21 12.2 9 6c-.2-.3-.6 0-.6.5V25L0 33.6 2.5 36 36 2.7z"/></symbol><symbol id="jw-svg-icon-fullscreen-off" viewBox="0 0 240 240"><path d="M109 135l-8 50c0 3-2 3-4 1L82 172l-28 28 -14-14 28-28 -14-14c-2-2-1-4 1-4l50-8c2 0 4 1 4 2C109 134 109 134 109 135L109 135zM172 82L200 54 186 40l-28 28 -14-14c-2-2-4-1-4 1l-8 50c0 2 1 4 2 4 1 0 1 0 2 0l50-8c3 0 3-2 1-4L172 82z"/></symbol><symbol id="jw-svg-icon-fullscreen-on" viewBox="0 0 240 240"><path d="M96 186c2 2 1 4-1 4l-51 8c-2 1-4-1-4-2 0-1 0-1 0-2l8-51c0-3 2-3 4-1l15 15 28-28 14 14 -28 28L96 186zM196 39l-51 8c-3 0-3 2-1 4l15 15 -28 28 14 14 28-28 15 15c2 2 4 1 4-1l8-51c1-2-1-4-2-4C197 39 196 39 196 39L196 39z"/></symbol><symbol id="jw-svg-icon-jwplayer-logo" viewBox="0 0 240 240"><path d="M32.4,122.175c-1.038,3.736-2.414-2.179-2.707-3.226-.941-3.365-1.979-6.7-3.193-9.974-1.135-4.157-4.333-8.478-9.2-6.7-4.735,1.73-4.364,7.006-3.6,11.1.8,6,5.2,29.8,7.9,34.9s8.4,7.9,13.7,5c5-2.6,7.3-8.8,9.3-13.7,2.6-6.1,15.4-41.6,15.4-41.6,1.3-3.5,2.3-3.3,2.2.4,0,0-.6,34.7-.7,50.5,0,4.5.174,9.016.614,13.5.437,4.446,1.044,9.163,3.261,13.12a15.473,15.473,0,0,0,12.162,8.248c5.451.431,10.483-2.463,13.894-6.551,4.177-5.007,7.128-10.937,10.069-16.714,6.2-12.2,22.2-50,22.2-50,1.5-3.4,2.6-3.2,2.4.5,0,0-2,63.5-2,87.8-.04,13.571,6.459,32.2,23.121,31.4,15.127-.732,21.819-18.448,26.479-30.1,4.8-12.5,8.8-25.3,12.8-38.1s37.9-134,40-144.4c2.257-8.652-9.662-13.868-13.7-5.5-1.9,3.8-48.3,116.2-48.3,116.2-1.4,3.5-2.6,3.2-2.6-.5,0,0,.1-39.1.3-71.5.065-11.359-4.124-23.4-15.437-27.873C132.7,22.84,120.483,32.026,114,44.075c-3.7,7.1-26.4,73.5-26.4,73.5-1.2,3.5-2.3,3.4-2.3-.4,0,0-.7-28.5-1.3-35.3-1-10.3-3.3-27.3-16.7-28.1-12.5-.4-18.1,15-21.3,24.6-2.1,6.3-12.6,40.7-12.6,40.7Z"/></symbol><symbol id="jw-svg-icon-next" viewBox="0 0 240 240"><path d="M165 60v53L59 43C57 41 55 42 55 45v150c0 3 2 4 4 2L165 127v53h20v-120L165 60 165 60z"/></symbol><symbol id="jw-svg-icon-pause" viewBox="0 0 240 240"><path d="M100 195c0 3-2 5-4 5 0 0 0 0-1 0H65c-3 0-5-2-5-4 0 0 0 0 0-1V45c0-3 2-5 4-5 0 0 0 0 1 0h30c3 0 5 2 5 4 0 0 0 0 0 1V195zM180 45c0-3-2-5-4-5 0 0 0 0-1 0h-30c-3 0-5 2-5 4 0 0 0 0 0 1V195c0 3 2 5 4 5 0 0 0 0 1 0h30c3 0 5-2 5-4 0 0 0 0 0-1V45z"/></symbol><symbol id="jw-svg-icon-play" viewBox="0 0 240 240"><path d="M63 200c-1 1-2 1-3 0 0 0-1-1 0-2V43c0-1 1-2 2-3 1 0 1 0 2 0l155 78c2 1 2 3 0 4L63 200z"/></symbol><symbol id="jw-svg-icon-playback-rate" viewBox="0 0 240 240"><path d="M159 49A71 71 0 1 0 230 120 71 71 0 0 0 159 49Zm45 78H152V75h13v39h39ZM36 75h39V88H36ZM10 114H62V126H10Zm26 39h39V165H36Z"/></symbol><symbol id="jw-svg-icon-quality-100" viewBox="0 0 240 240"><path d="M55 200H35c-3 0-5-2-5-4 0 0 0 0 0-1v-30c0-3 2-5 4-5 0 0 0 0 1 0h20c3 0 5 2 5 4 0 0 0 0 0 1v30C60 198 58 200 55 200L55 200zM110 195v-70c0-3-2-5-4-5 0 0 0 0-1 0H85c-3 0-5 2-5 4 0 0 0 0 0 1v70c0 3 2 5 4 5 0 0 0 0 1 0h20C108 200 110 198 110 195L110 195zM160 195V85c0-3-2-5-4-5 0 0 0 0-1 0h-20c-3 0-5 2-5 4 0 0 0 0 0 1v110c0 3 2 5 4 5 0 0 0 0 1 0h20C158 200 160 198 160 195L160 195zM210 195V45c0-3-2-5-4-5 0 0 0 0-1 0h-20c-3 0-5 2-5 4 0 0 0 0 0 1v150c0 3 2 5 4 5 0 0 0 0 1 0h20C208 200 210 198 210 195L210 195z"/></symbol><symbol id="jw-svg-icon-replay" viewBox="0 0 240 240"><path d="M120 42v-20c0-5-4-8-8-4l-44 28a6 6 0 0 0-3 8A6 6 0 0 0 68 57l43 29c5 4 9 1 9-4v-20a60 60 0 1 1-60 60H40a80 80 0 1 0 80-80Z"/></symbol><symbol id="jw-svg-icon-rewind" viewBox="0 0 240 240"><path d="M113 131a22 22 0 0 0-18-11 22 22 0 0 0-18 11 45 45 0 0 0 0 46 22 22 0 0 0 18 11 22 22 0 0 0 18-11 45 45 0 0 0 0-46Zm-18 47c-8 0-14-11-14-24s7-24 14-24 14 11 14 24S103 178 96 178Zm-43 10v-51l-5 5-7-7 13-13a5 5 0 0 1 8 3v63l-10 0Zm162-130v125a5 5 0 0 1-5 5H147v-19h48v-96H79v19c0 5-4 7-8 4l-42-28a6 6 0 0 1-3-8 6 6 0 0 1 3-3l42-28c4-3 8-1 8 4v19H209A5 5 0 0 1 214 58Z"/></symbol><symbol id="jw-svg-icon-settings" viewBox="0 0 240 240"><path d="M204 145l-25-14c1-4 1-7 1-11 0-4 0-7-1-11l25-14c2-2 3-4 2-7l-16-26c-1-2-4-3-6-2l-25 14c-6-4-12-8-19-11V35c0-3-2-5-4-5 0 0 0 0-1 0h-30c-3 0-5 2-5 4 0 0 0 0 0 1v28c-7 3-13 7-19 11L56 60c-2-1-5 0-6 2L35 88c-2 2-1 5 1 7 0 0 0 0 0 0l25 14c-1 4-1 7-1 11 0 4 0 7 1 11l-25 14c-2 2-3 5-2 7l16 26c1 2 4 3 6 2l25-14c6 5 12 8 19 11v28c0 3 2 5 4 5 0 0 0 0 1 0h30c3 0 5-2 5-4 0 0 0 0 0-1v-28c7-2 14-6 19-11l25 14c3 1 6 0 7-2l15-26C207 149 206 147 204 145zM120 150c-16 0-30-13-30-30s13-30 30-30 30 13 30 30c0 16-13 30-29 30C121 150 120 150 120 150z"/></symbol><symbol id="jw-svg-icon-stop" viewBox="0 0 240 240"><path d="M190 185c0 3-2 5-4 5 0 0 0 0-1 0H55c-3 0-5-2-5-4 0 0 0 0 0-1V55c0-3 2-5 4-5 0 0 0 0 1 0h130c3 0 5 2 5 4 0 0 0 0 0 1V185z"/></symbol><symbol id="jw-svg-icon-volume-0" viewBox="0 0 240 240"><path d="M116 43v155c0 3-2 4-4 2l-54-48H29c-3 0-5-2-5-5V94c0-3 2-5 5-5h30l54-48C115 39 116 40 116 43zM212 96l-15-15 -24 24 -24-24 -15 15 24 24 -24 24 15 15 24-24 24 24 15-15L189 120 212 96z"/></symbol><symbol id="jw-svg-icon-volume-50" viewBox="0 0 240 240"><path d="M116 43v155c0 3-2 4-4 2l-54-48H29c-3 0-5-2-5-5V94c0-3 2-5 5-5h30l54-48C115 39 116 40 116 43zM178 120c0-23-18-41-41-41v21c11 0 21 9 21 21 0 11-9 21-21 21v21C160 161 178 143 178 120z"/></symbol><symbol id="jw-svg-icon-volume-100" viewBox="0 0 240 240"><path d="M117 43v154c0 3-2 4-4 2l-54-48H29c-3 0-5-2-5-5V94c0-3 2-5 5-5h30l54-48C115 39 117 40 117 43zM136 160v-20c11 0 20-9 20-20s-9-20-20-20V80c22 0 40 18 40 40S158 160 136 160zM216 120c0-44-36-80-80-80v20c33 0 60 27 60 60s-27 60-60 60v20C180 200 216 164 216 120z"/></symbol></defs></svg>