<?xml version="1.0" encoding="utf-8"?>
<!-- Generator: Adobe Illustrator 21.1.0, SVG Export Plug-In . SVG Version: 6.00 Build 0)  -->
<svg version="1.1" id="Layer_1" xmlns="http://www.w3.org/2000/svg" xmlns:xlink="http://www.w3.org/1999/xlink" x="0px" y="0px"
	 width="357.1px" height="357.1px" viewBox="0 0 357.1 357.1" style="enable-background:new 0 0 357.1 357.1;" xml:space="preserve"
	>
<style type="text/css">
	.st0{fill:#FFFFFF;}
</style>
<g transform="translate(887 1890)">
	<path class="st0" d="M-529.9-1545.7c0.4,6.6-4.6,12.3-11.3,12.8c-0.5,0-1,0-1.5,0h-331.5c-6.6,0.4-12.3-4.6-12.8-11.3
		c0-0.5,0-1,0-1.5v-331.5c-0.4-6.6,4.6-12.3,11.3-12.8c0.5,0,1,0,1.5,0h331.5c6.6-0.4,12.3,4.6,12.8,11.3c0,0.5,0,1,0,1.5V-1545.7z"
		/>
</g>
</svg>
