<?xml version="1.0" encoding="utf-8"?>
<!-- Generator: Adobe Illustrator 21.1.0, SVG Export Plug-In . SVG Version: 6.00 Build 0)  -->
<svg version="1.1" id="Layer_1" xmlns="http://www.w3.org/2000/svg" xmlns:xlink="http://www.w3.org/1999/xlink" x="0px" y="0px"
	 width="515.1px" height="415.8px" viewBox="0 0 515.1 415.8" style="enable-background:new 0 0 515.1 415.8;" xml:space="preserve"
	>
<style type="text/css">
	.st0{fill:#FFFFFF;}
</style>
<g transform="translate(324 791)">
	<path class="st0" d="M-158.2-375.2C6.3-375,139.9-508.1,140.1-672.7c0-0.3,0-0.6,0-0.9v-12.8c20.1-14.6,37.4-32.7,51-53.6
		c-19.5,8.1-40.2,13.2-61.2,15.3c21.9-13.4,38.1-34.2,45.9-58.7c-20.5,12.2-42.9,20.8-66.3,25.5C89.9-779.4,62.1-791.4,33-791
		c-57.1-0.6-103.9,45.1-104.6,102.2c0,0.8,0,1.5,0,2.3c-0.4,7.7,0.4,15.5,2.6,22.9c-83.7-2.3-162.1-41.5-214.2-107.1
		c-10.4,15.9-15.7,34.6-15.3,53.5c-0.3,34.8,16.9,67.4,45.9,86.7c-16.9-0.3-33.6-4.7-48.4-12.8v2.6c0,49.8,35.3,92.5,84.1,102
		c-9.2,2.2-18.6,3.1-28.1,2.6c-6.9,0.4-13.8-0.5-20.4-2.6c13.3,42.4,52.5,71.3,96.9,71.4c-37,29.3-82.8,45.5-130,45.9
		c-8.6,0.4-17.2-0.4-25.5-2.6C-274.2-392.6-216.8-375.9-158.2-375.2"/>
</g>
</svg>
