<?xml version="1.0" encoding="utf-8"?>
<!-- Generator: Adobe Illustrator 21.1.0, SVG Export Plug-In . SVG Version: 6.00 Build 0)  -->
<svg version="1.1" id="Layer_1" xmlns="http://www.w3.org/2000/svg" xmlns:xlink="http://www.w3.org/1999/xlink" x="0px" y="0px"
	 width="484.5px" height="408px" viewBox="0 0 484.5 408" style="enable-background:new 0 0 484.5 408;" xml:space="preserve">
<style type="text/css">
	.st0{fill:#FFFFFF;}
</style>
<g transform="translate(887 1936)">
	<path class="st0" d="M-657.5-1923.2v382.5c0,7-4.3,9-9.5,4.3l-133.9-119h-73.3c-7,0-12.8-5.7-12.8-12.8v-127.5
		c0-7,5.7-12.8,12.8-12.8h73.3l133.9-119C-661.7-1932.2-657.5-1930.3-657.5-1923.2z M-402.5-1732c-0.1-112.6-91.4-203.9-204-204v51
		c84.5,0,153,68.5,153,153s-68.5,153-153,153v51C-493.8-1528.1-402.6-1619.4-402.5-1732z M-606.5-1630v-51c28.2,0,51-22.8,51-51
		s-22.8-51-51-51v-51c56.3,0,102,45.7,102,102S-550.1-1630-606.5-1630z"/>
</g>
</svg>
