<?xml version="1.0" encoding="utf-8"?>
<!-- Generator: Adobe Illustrator 21.1.0, SVG Export Plug-In . SVG Version: 6.00 Build 0)  -->
<svg version="1.1" id="volume50Icon" class="jw-svg-icon jw-icon-volume" xmlns="http://www.w3.org/2000/svg" xmlns:xlink="http://www.w3.org/1999/xlink" x="0px" y="0px"
	 width="382.5px" height="396.2px" viewBox="0 0 382.5 396.2" style="enable-background:new 0 0 382.5 396.2;" xml:space="preserve"
	>
<style type="text/css">
	.jw-icon-volume{fill:#FFFFFF;}
</style>
<g transform="translate(950 1130)">
	<path d="M-720.5-1123.1v382.5c0,7-4.3,9-9.5,4.3l-133.9-119h-73.3c-7,0-12.8-5.7-12.8-12.8v-127.5
		c0-7,5.7-12.8,12.8-12.8h73.3l133.9-119C-724.7-1132.1-720.5-1130.2-720.5-1123.1z M-567.5-931.9c0-56.3-45.7-102-102-102v51
		c28.2,0,51,22.8,51,51c0,28.2-22.8,51-51,51v51C-613.1-829.9-567.5-875.6-567.5-931.9z"/>
</g>
</svg>
