<?xml version="1.0" encoding="utf-8"?>
<!-- Generator: Adobe Illustrator 21.1.0, SVG Export Plug-In . SVG Version: 6.00 Build 0)  -->
<svg version="1.1" id="volume0Icon" class="jw-svg-icon jw-icon-volume" xmlns="http://www.w3.org/2000/svg" xmlns:xlink="http://www.w3.org/1999/xlink" x="0px" y="0px"
	 width="477px" height="396.2px" viewBox="0 0 477 396.2" style="enable-background:new 0 0 477 396.2;" xml:space="preserve">
<style type="text/css">
	.jw-icon-volume{fill:#FFFFFF;}
</style>
<g transform="translate(887 1890)">
	<path d="M-657.5-1883.1v382.5c0,7-4.3,9-9.5,4.3l-133.9-119h-73.3c-7,0-12.8-5.7-12.8-12.8v-127.5
		c0-7,5.7-12.8,12.8-12.8h73.3l133.9-119C-661.8-1892.1-657.5-1890.2-657.5-1883.1z M-410-1750.4l-36.1-36.1l-58.5,58.5l-58.5-58.5
		l-36.1,36.1l58.5,58.5l-58.5,58.5l36.1,36.1l58.5-58.5l58.5,58.5l36.1-36.1l-58.5-58.5L-410-1750.4z"/>
</g>
</svg>
