<svg xmlns="http://www.w3.org/2000/svg" preserveAspectRatio="xMidYMid" width="22" height="15"><path d="M18.5 13.5h-15c-1.105 0-2-.895-2-2v-8c0-1.105.895-2 2-2h15c1.105 0 2 .895 2 2v8c0 1.105-.895 2-2 2zM6.758 6.803c.057-.235.147-.446.27-.63.123-.186.284-.333.482-.443.2-.11.44-.165.724-.165.156 0 .304.025.446.076.142.052.27.123.382.214.113.092.207.198.282.318.075.12.123.253.145.398h1.22c-.037-.332-.128-.627-.273-.884-.144-.258-.328-.473-.55-.648-.223-.174-.475-.307-.756-.398-.28-.09-.58-.137-.896-.137-.44 0-.835.078-1.186.234-.35.155-.647.37-.89.643-.24.273-.425.594-.553.96-.13.368-.193.766-.193 1.195 0 .418.064.808.193 1.17.128.362.313.677.554.945.24.268.537.48.888.63.35.154.746.23 1.186.23.354 0 .678-.053.973-.16.295-.107.552-.263.772-.467.22-.203.396-.45.53-.74s.217-.613.25-.973H9.536c-.048.386-.18.697-.398.933-.218.236-.52.354-.906.354-.284 0-.525-.055-.724-.165-.198-.11-.36-.256-.482-.438-.123-.182-.213-.387-.27-.615-.056-.23-.084-.464-.084-.705 0-.252.028-.496.084-.732zm5.96 0c.056-.235.145-.446.27-.63.122-.186.283-.333.48-.443.2-.11.44-.165.725-.165.155 0 .304.025.446.076.14.052.27.123.38.214.114.092.207.198.283.318.075.12.123.253.144.398h1.223c-.038-.332-.13-.627-.274-.884-.144-.258-.328-.473-.55-.648-.223-.174-.475-.307-.756-.398-.282-.09-.58-.137-.897-.137-.44 0-.835.078-1.186.234-.35.155-.648.37-.89.643-.24.273-.425.594-.554.96-.128.368-.193.766-.193 1.195 0 .418.065.808.193 1.17.13.362.314.677.555.945.24.268.538.48.89.63.35.154.745.23 1.185.23.354 0 .678-.053.973-.16.295-.107.552-.263.772-.467.22-.203.397-.45.53-.74.135-.29.218-.613.25-.973h-1.222c-.05.386-.18.697-.398.933-.218.236-.52.354-.905.354-.284 0-.525-.055-.724-.165-.2-.11-.36-.256-.483-.438-.124-.182-.213-.387-.27-.615-.056-.23-.084-.464-.084-.705 0-.252.028-.496.084-.732z" class="cls-2" fill-rule="evenodd"/></svg>